<svg xmlns="http://www.w3.org/2000/svg" width="651" height="545" viewBox="0 0 651 545" fill="none"><path d="M0 295C0 239.772 44.7715 195 100 195H353C408.228 195 453 239.772 453 295V467H0V295Z" fill="#403D39"></path><path d="M536.914 543H377.699C355.228 543 337 524.877 337 502.536V342H603V477.23C603 513.542 573.371 543 536.914 543Z" fill="#FAFAFA" stroke="#403D39" stroke-width="1.5" stroke-miterlimit="10"></path><path d="M602.417 360.537C603.52 360.67 604.558 360.737 605.727 360.737C619.097 360.737 630 349.632 630 335.868V300.162C630 282.142 618.383 266.915 602.482 261.795C598.782 260.598 594.888 260 590.864 260C587.619 260 584.504 260.399 581.518 261.197C565.682 265.452 554 280.214 554 297.768V362" fill="#FAFAFA"></path><path d="M602.417 360.537C603.52 360.67 604.558 360.737 605.727 360.737C619.097 360.737 630 349.632 630 335.868V300.162C630 282.142 618.383 266.915 602.482 261.795C598.782 260.598 594.888 260 590.864 260C587.619 260 584.504 260.399 581.518 261.197C565.682 265.452 554 280.214 554 297.768V362" stroke="#403D39" stroke-width="1.5" stroke-miterlimit="10"></path><path d="M581 329.632L581.262 337.019C581.262 350.785 592.136 362 605.631 362C619.06 362 630 350.853 630 337.019V316" fill="white"></path><path d="M581 329.632L581.262 337.019C581.262 350.785 592.136 362 605.631 362C619.06 362 630 350.853 630 337.019V316" stroke="#403D39" stroke-width="1.5" stroke-miterlimit="10"></path><path d="M344.529 327.861L344.265 282.218C344.199 272.706 341.092 263.326 335.209 255.862C328.995 248.002 319.741 241 302.092 241C267.786 241 260.118 274.556 259.655 291.201L247.625 291.399C247.625 291.399 241.61 261.014 210.542 261.014C179.211 261.014 170.287 286.049 170.155 297.741C169.956 309.762 170.155 405.541 170.155 405.541H136.443V342.79H1.00241V462.678C1.00241 462.678 -0.319672 513.21 59.1712 537.848C67.4999 541.283 76.4897 543 85.4794 543H276.511C308.306 543 336.267 521.466 343.802 490.553C343.934 489.958 344.066 489.364 344.199 488.769C344.265 488.373 345.124 479.126 345.124 478.663L344.331 443.126C344.133 434.01 345.851 424.895 349.619 416.638C352.329 410.693 356.229 404.748 361.782 401.115C376.125 391.802 389.081 384.074 383.793 362.804C378.307 340.676 348.76 340.081 348.76 340.081L344.529 340.147V327.861Z" fill="#FAFAFA" stroke="#403D39" stroke-width="1.5" stroke-miterlimit="10"></path><path d="M238 357.616C238 372.186 250.09 384 265 384C279.91 384 292 372.186 292 357.616V317.515C292 302.945 279.91 291.131 265 291.131L259.963 291L247.739 291.131" stroke="#403D39" stroke-width="1.5" stroke-miterlimit="10"></path><path d="M295 299V339.71C295 341.667 295.264 343.624 295.858 345.516C297.77 351.648 303.575 363 320.726 363C344.208 363 345 340.166 345 340.166" fill="#FAFAFA"></path><path d="M295 299V339.71C295 341.667 295.264 343.624 295.858 345.516C297.77 351.648 303.575 363 320.726 363C344.208 363 345 340.166 345 340.166" stroke="#403D39" stroke-width="2" stroke-miterlimit="10"></path><path d="M285 417C285 417 294.045 380.011 315 363" stroke="#403D39" stroke-width="1.5" stroke-miterlimit="10"></path><path d="M263 405V384" stroke="#403D39" stroke-width="1.5" stroke-miterlimit="10"></path><path d="M222 405V359" stroke="#403D39" stroke-width="1.5" stroke-miterlimit="10"></path><path d="M272 375C264.82 375 259 369.18 259 362C259 354.82 264.82 349 272 349C279.18 349 285 354.82 285 362C285 369.18 279.18 375 272 375Z" fill="white" stroke="#403D39" stroke-width="1.5" stroke-miterlimit="10"></path><path d="M285 346C285 346 272.974 334.75 259 346H285Z" fill="white"></path><path d="M285 346C285 346 272.974 334.75 259 346" stroke="#403D39" stroke-width="1.5" stroke-miterlimit="10"></path><path d="M329 352C321.82 352 316 346.18 316 339C316 331.82 321.82 326 329 326C336.18 326 342 331.82 342 339C342 346.18 336.18 352 329 352Z" fill="white" stroke="#403D39" stroke-width="1.5" stroke-miterlimit="10"></path><path d="M342 323C342 323 329.974 314 316 323H342Z" fill="white"></path><path d="M342 323C342 323 329.974 314 316 323" stroke="#403D39" stroke-width="1.5" stroke-miterlimit="10"></path><path d="M555.033 392C540.672 392 529 380.211 529 365.707V291H542.967C563.951 291 581 308.22 581 329.413V365.773C581.065 380.277 569.393 392 555.033 392Z" fill="#FAFAFA" stroke="#403D39" stroke-width="1.5" stroke-miterlimit="10"></path><path d="M563.5 382C556.596 382 551 376.404 551 369.5C551 362.596 556.596 357 563.5 357C570.404 357 576 362.596 576 369.5C576 376.404 570.404 382 563.5 382Z" fill="white" stroke="#403D39" stroke-width="1.5" stroke-miterlimit="10"></path><path d="M576 354C576 354 564.437 342.75 551 354H576Z" fill="white"></path><path d="M576 354C576 354 564.437 342.75 551 354" stroke="#403D39" stroke-width="1.5" stroke-miterlimit="10"></path><path d="M614 351C606.82 351 601 345.18 601 338C601 330.82 606.82 325 614 325C621.18 325 627 330.82 627 338C627 345.18 621.18 351 614 351Z" fill="white" stroke="#403D39" stroke-width="1.5" stroke-miterlimit="10"></path><path d="M627 321C627 321 614.974 312 601 321H627Z" fill="white"></path><path d="M627 321C627 321 614.974 312 601 321" stroke="#403D39" stroke-width="1.5" stroke-miterlimit="10"></path><path d="M198 316.525V335.869C198 339.082 198.72 342.23 200.094 345.115C203.105 351.213 209.911 360 224.047 360C241.652 360 246.102 344.459 247.149 338.689C247.346 337.574 247.476 336.459 247.476 335.279L248 292" fill="#FAFAFA"></path><path d="M198 316.525V335.869C198 339.082 198.72 342.23 200.094 345.115C203.105 351.213 209.911 360 224.047 360C241.652 360 246.102 344.459 247.149 338.689C247.346 337.574 247.476 336.459 247.476 335.279L248 292" stroke="#403D39" stroke-width="2" stroke-miterlimit="10"></path><path d="M238 359V355" stroke="#403D39" stroke-width="1.5" stroke-miterlimit="10"></path><path d="M229.5 348C222.596 348 217 342.18 217 335C217 327.82 222.596 322 229.5 322C236.404 322 242 327.82 242 335C242 342.18 236.404 348 229.5 348Z" fill="white" stroke="#403D39" stroke-width="1.5" stroke-miterlimit="10"></path><path d="M242 319C242 319 230.437 310 217 319H242Z" fill="white"></path><path d="M242 319C242 319 230.437 310 217 319" stroke="#403D39" stroke-width="1.5" stroke-miterlimit="10"></path><path d="M455 283.837V388H505.694V362.091C508.758 363.413 512.156 364.14 515.686 364.14C522.681 364.14 529.009 361.298 533.606 356.804C538.202 352.31 541 345.965 541 339.025V276.302C541 259.052 525.679 244.71 505.694 242.33C504.495 242.198 503.296 242.066 502.03 242H497.101C494.769 242 492.504 242.198 490.306 242.529C470.321 245.767 455 263.018 455 283.837Z" fill="#FAFAFA" stroke="#403D39" stroke-width="1.5" stroke-miterlimit="10"></path><path d="M492 332.632L492.262 340.019C492.262 353.785 503.136 365 516.631 365C530.06 365 541 353.853 541 340.019V319" fill="white"></path><path d="M492 332.632L492.262 340.019C492.262 353.785 503.136 365 516.631 365C530.06 365 541 353.853 541 340.019V319" stroke="#403D39" stroke-width="1.5" stroke-miterlimit="10"></path><path d="M525 352C517.82 352 512 346.18 512 339C512 331.82 517.82 326 525 326C532.18 326 538 331.82 538 339C538 346.18 532.18 352 525 352Z" fill="white" stroke="#403D39" stroke-width="1.5" stroke-miterlimit="10"></path><path d="M538 323C538 323 525.974 314 512 323H538Z" fill="white"></path><path d="M538 323C538 323 525.974 314 512 323" stroke="#403D39" stroke-width="1.5" stroke-miterlimit="10"></path><path d="M411.012 452.887C411.012 452.887 408.382 382.225 481.11 371.232C481.11 371.232 518 366.133 518 403.749C518 403.749 517.737 417.126 504.454 426.464C499.982 429.576 494.787 431.431 489.33 431.96C484.595 432.424 477.625 434.013 475.718 439.113C475.718 439.113 505.44 468.252 468.813 496" fill="#FAFAFA"></path><path d="M411.012 452.887C411.012 452.887 408.382 382.225 481.11 371.232C481.11 371.232 518 366.133 518 403.749C518 403.749 517.737 417.126 504.454 426.464C499.982 429.576 494.787 431.431 489.33 431.96C484.595 432.424 477.625 434.013 475.718 439.113C475.718 439.113 505.44 468.252 468.813 496" stroke="#403D39" stroke-width="1.5" stroke-miterlimit="10"></path><path d="M493.5 399C486.596 399 481 393.404 481 386.5C481 379.596 486.596 374 493.5 374C500.404 374 506 379.596 506 386.5C506 393.404 500.404 399 493.5 399Z" fill="white" stroke="#403D39" stroke-width="1.5" stroke-miterlimit="10"></path><path d="M474.644 378C474.644 378 468.488 391.727 480 403L474.644 378Z" fill="white"></path><path d="M474.644 378C474.644 378 468.488 391.727 480 403" stroke="#403D39" stroke-width="1.5" stroke-miterlimit="10"></path><path d="M555 392V403" stroke="#403D39" stroke-width="1.5" stroke-miterlimit="10"></path><path d="M248.305 543H600.697C604.213 543 607 540.284 607 537C607 533.653 604.147 531 600.697 531H248.305C244.788 531 242.001 533.716 242.001 537C241.935 540.284 244.788 543 248.305 543Z" fill="#FDD655" stroke="#403D39" stroke-width="1.5" stroke-miterlimit="10"></path><path d="M427 519H526V530H427V519Z" fill="#ECB704" stroke="#403D39" stroke-width="1.5" stroke-miterlimit="10"></path><path d="M395 519H419V530H395V519Z" fill="#ECB704" stroke="#403D39" stroke-width="1.6246" stroke-miterlimit="10"></path><path d="M364 519H387V530H364V519Z" fill="white" stroke="#403D39" stroke-width="1.6246" stroke-miterlimit="10"></path><path d="M333 519H356V530H333V519Z" fill="#ECB704" stroke="#403D39" stroke-width="1.6246" stroke-miterlimit="10"></path><path d="M301 519H324V530H301V519Z" fill="white" stroke="#403D39" stroke-width="1.6246" stroke-miterlimit="10"></path><path d="M637.038 544C644.197 544 650 537.974 650 530.539V517H624V530.461C624.075 537.974 629.878 544 637.038 544Z" fill="white" stroke="#403D39" stroke-width="1.5" stroke-miterlimit="10"></path><path d="M631 524.041C631 521.314 629.008 519 626.5 519H622V529H626.5C629.008 529 631 526.769 631 524.041Z" fill="white" stroke="#403D39" stroke-width="1.5" stroke-miterlimit="10"></path><path d="M644.331 500.587C646.723 500.246 648.939 501.909 649.279 504.301C649.62 506.693 647.957 508.908 645.565 509.249L641.234 509.866L640.617 505.535C640.276 503.143 641.939 500.927 644.331 500.587Z" fill="#403D39"></path><path d="M627.859 489.266C629.356 486.612 632.72 485.674 635.374 487.171C638.027 488.667 638.965 492.032 637.469 494.686L634.759 499.491L629.954 496.781C627.3 495.284 626.362 491.92 627.859 489.266Z" fill="#403D39"></path><path d="M624.074 508.768C623.524 507.436 624.158 505.911 625.489 505.361C626.82 504.811 628.346 505.444 628.896 506.776L629.892 509.186L627.481 510.183C626.15 510.733 624.624 510.099 624.074 508.768Z" fill="#403D39"></path><rect x="161.416" y="98.0427" width="286.412" height="28.6274" rx="14.3137" transform="rotate(-6.97759 161.416 98.0427)" fill="#FDD655" stroke="#403D39" stroke-width="2"></rect><path d="M504.362 135.71C469.889 134.623 442.825 105.797 443.911 71.324C444.998 36.8513 473.825 9.78665 508.297 10.8733C542.77 11.96 569.835 40.7866 568.748 75.2592C567.661 109.732 538.835 136.797 504.362 135.71Z" fill="#FDD655" stroke="#403D39" stroke-width="1.5" stroke-miterlimit="10"></path><path d="M505.348 120.654C480.987 119.886 461.861 99.5144 462.629 75.1531C463.397 50.7918 483.768 31.6656 508.129 32.4335C532.491 33.2015 551.617 53.5727 550.849 77.934C550.081 102.295 529.71 121.421 505.348 120.654Z" fill="white" stroke="#403D39" stroke-width="1.5" stroke-miterlimit="10"></path><path d="M474.53 85.9526C472.23 77.4598 486.087 66.3188 505.48 61.0685C524.873 55.8182 542.457 58.4468 544.757 66.9396C547.056 75.4324 533.199 86.5734 513.806 91.8237C494.414 97.074 476.829 94.4454 474.53 85.9526Z" fill="white" stroke="#403D39" stroke-width="1.5" stroke-miterlimit="10"></path><path d="M526.746 85.4424C519.174 85.2038 513.229 78.8721 513.468 71.3004C513.707 63.7286 520.038 57.784 527.61 58.0227C535.182 58.2614 541.126 64.593 540.888 72.1647C540.649 79.7365 534.317 85.6811 526.746 85.4424Z" fill="#403D39" stroke="#403D39" stroke-width="1.5" stroke-miterlimit="10"></path><path d="M527.024 76.5863C524.344 76.5018 522.239 74.2602 522.323 71.5795C522.408 68.8988 524.65 66.7942 527.33 66.8787C530.011 66.9632 532.116 69.2048 532.031 71.8855C531.947 74.5662 529.705 76.6708 527.024 76.5863Z" fill="white" stroke="#403D39" stroke-width="1.5" stroke-miterlimit="10"></path><path d="M387.897 145.677C353.424 144.59 326.359 115.764 327.446 81.2909C328.533 46.8182 357.359 19.7536 391.832 20.8402C426.305 21.9269 453.369 50.7535 452.283 85.2261C451.196 119.699 422.369 146.763 387.897 145.677Z" fill="#FDD655" stroke="#403D39" stroke-width="1.5" stroke-miterlimit="10"></path><path d="M388.883 130.62C364.522 129.853 345.396 109.481 346.164 85.12C346.932 60.7587 367.303 41.6325 391.664 42.4004C416.025 43.1684 435.152 63.5396 434.384 87.9009C433.616 112.262 413.244 131.388 388.883 130.62Z" fill="white" stroke="#403D39" stroke-width="1.5" stroke-miterlimit="10"></path><path d="M358.086 95.9026C355.786 87.4098 369.643 76.2688 389.036 71.0185C408.428 65.7682 426.013 68.3968 428.313 76.8896C430.612 85.3824 416.755 96.5234 397.362 101.774C377.97 107.024 360.385 104.395 358.086 95.9026Z" fill="white" stroke="#403D39" stroke-width="1.5" stroke-miterlimit="10"></path><path d="M410.28 95.4094C402.708 95.1707 396.764 88.8391 397.002 81.2673C397.241 73.6956 403.573 67.7509 411.144 67.9896C418.716 68.2283 424.661 74.5599 424.422 82.1317C424.183 89.7034 417.852 95.6481 410.28 95.4094Z" fill="#403D39" stroke="#403D39" stroke-width="1.5" stroke-miterlimit="10"></path><path d="M410.559 86.5532C407.878 86.4687 405.774 84.2271 405.858 81.5464C405.943 78.8657 408.184 76.7611 410.865 76.8456C413.546 76.9301 415.65 79.1718 415.566 81.8524C415.481 84.5331 413.24 86.6377 410.559 86.5532Z" fill="white" stroke="#403D39" stroke-width="1.5" stroke-miterlimit="10"></path><path d="M537.258 60.2021L544.574 47.1354" stroke="#403D39" stroke-width="1.5" stroke-miterlimit="10"></path><path d="M520.116 57.7864L518.291 37.2715" stroke="#403D39" stroke-width="1.5" stroke-miterlimit="10"></path><path d="M503.028 61.7654L495.003 48.6414" stroke="#403D39" stroke-width="1.5" stroke-miterlimit="10"></path><path d="M484.515 70.3877L470.499 60.7401" stroke="#403D39" stroke-width="1.5" stroke-miterlimit="10"></path><path d="M422.392 70.8161L429.708 57.7494" stroke="#403D39" stroke-width="1.5" stroke-miterlimit="10"></path><path d="M405.252 68.3153L403.51 47.8882" stroke="#403D39" stroke-width="1.5" stroke-miterlimit="10"></path><path d="M387.505 71.5916L379.397 58.3797" stroke="#403D39" stroke-width="1.5" stroke-miterlimit="10"></path><path d="M368.568 80.1152L355.263 69.5523" stroke="#403D39" stroke-width="1.5" stroke-miterlimit="10"></path></svg>