<svg xmlns="http://www.w3.org/2000/svg" width="110" height="110" viewBox="0 0 110 110" fill="none"><path d="M66.8271 7.33265C67.0162 6.71175 67.6865 6.3057 68.3267 6.4389C69.4203 6.61507 70.1937 7.61624 70.4322 8.64964C70.9521 10.7744 71.4527 12.9035 71.9683 15.0284C72.0671 15.4967 72.297 15.9694 72.7375 16.2057C74.4132 17.1832 76.0998 18.1414 77.7755 19.1211C78.9013 19.7678 79.6318 21.2373 79.1828 22.5006C78.8884 23.2676 77.9732 23.3385 77.2921 23.5297C79.997 25.1067 82.7041 26.6772 85.4111 28.2434C85.7828 28.426 86.1179 28.7676 86.0707 29.2145C86.1072 38.5086 86.1244 47.8028 86.1544 57.0948C90.3503 59.5074 94.5334 61.9416 98.7293 64.3543C99.7906 64.9516 100.897 65.5875 101.585 66.6295C102.055 67.3127 102.281 68.142 102.263 68.9692C102.257 71.268 102.274 73.5668 102.255 75.8657C102.242 77.5844 100.949 78.9701 99.5328 79.7737C86.9837 87.0719 74.4326 94.3615 61.8792 101.651C57.9218 104.221 52.4562 104.231 48.4752 101.707C36.1689 94.5957 23.8562 87.493 11.5457 80.3881C10.4414 79.7629 9.27906 79.1334 8.52496 78.0764C7.99644 77.376 7.70855 76.5037 7.73648 75.625C7.74292 73.3284 7.73863 71.0295 7.75581 68.7307C7.76441 67.0098 9.06851 65.6262 10.4865 64.827C20.2103 59.1658 29.9449 53.5262 39.6666 47.8629C39.6644 45.7317 39.6429 43.6004 39.6537 41.4713C39.6128 41.0932 39.8707 40.786 40.1886 40.627C44.0816 38.3926 47.9574 36.1346 51.8525 33.9024C51.8589 31.6229 51.8332 29.3434 51.8396 27.0639C51.7923 26.6729 52.0287 26.3248 52.3746 26.1616C55.6015 24.2967 58.8328 22.434 62.0619 20.5713C62.4572 20.4231 62.4873 19.9633 62.6291 19.626C62.7966 19.1297 63.0738 18.5582 62.7021 18.0791C61.3121 16.0403 59.8511 14.0465 58.4439 12.0205C58.0185 11.4125 57.7306 10.6563 57.8767 9.90648C57.9798 9.30706 58.4546 8.74632 59.0863 8.68831C59.5869 8.62171 60.0423 8.88382 60.4634 9.12015C62.0619 10.0483 63.6646 10.9657 65.263 11.8938C65.7916 10.377 66.2857 8.8473 66.8271 7.33265ZM68.2923 8.11898C67.7316 9.668 67.2503 11.2471 66.6724 12.7897C66.3673 13.5782 65.3318 13.8295 64.6335 13.4106C62.8976 12.4481 61.2025 11.4082 59.4623 10.4565C60.4205 12.1989 61.7332 13.7178 62.8246 15.3785C63.5507 16.5194 64.7732 17.6258 64.5025 19.1125C64.0234 20.7131 63.4261 22.2793 62.9084 23.8692C62.6376 24.4235 63.1082 24.9412 63.439 25.3473C64.8462 25.0186 66.2449 24.6448 67.6543 24.3139C68.5222 24.0604 69.3644 24.6426 69.8478 25.3258C71.3238 27.3797 72.7482 29.4723 74.2414 31.5155C73.7365 29.3198 73.1822 27.1348 72.6709 24.9412C72.4431 24.1592 72.673 23.0893 73.5367 22.8164C74.9246 22.4233 76.3318 22.0967 77.7261 21.7207C77.5822 21.2846 77.4253 20.7926 76.9892 20.5649C75.3156 19.5809 73.6269 18.6248 71.949 17.6473C71.1712 17.2155 70.632 16.4248 70.4128 15.5741C69.9531 13.8231 69.5341 12.0614 69.1517 10.2932C68.9627 9.53695 68.8681 8.69691 68.2923 8.11898ZM54.2931 26.9436C59.7931 30.1362 65.2824 33.3481 70.7931 36.5213C75.0599 34.0399 79.3396 31.5778 83.6171 29.1114C80.764 27.4248 77.8851 25.7834 75.0255 24.1119C74.8236 24.1635 74.4175 24.2666 74.2156 24.3182C74.7377 26.6815 75.3736 29.0211 75.8828 31.3866C76.132 32.3362 75.3671 33.4705 74.3252 33.2965C73.15 33.1547 72.5806 31.9967 71.9533 31.1438C70.6814 29.41 69.5492 27.5666 68.172 25.9123C66.782 26.2711 65.3877 26.6106 63.9912 26.9457C63.4369 27.1069 62.8396 26.9242 62.3992 26.5698C61.2455 25.6953 60.8609 24.0432 61.5484 22.7563C59.1293 24.1528 56.7144 25.5514 54.2931 26.9436ZM53.481 28.3723C53.4832 30.2092 53.4896 32.0461 53.496 33.883C58.9832 37.0799 64.4767 40.2639 69.9638 43.4608C69.9595 41.6196 69.9574 39.7805 69.9488 37.9393C64.4595 34.7489 58.9703 31.5606 53.481 28.3723ZM71.5945 37.9371C71.5794 40.2596 71.6267 42.5842 71.5966 44.9045C71.6095 45.3299 71.2336 45.592 70.907 45.7768C67.072 47.9875 63.2392 50.2026 59.4043 52.4112C59.4064 55.7026 59.4279 58.994 59.4257 62.2854C59.4451 62.6657 59.198 62.9944 58.8693 63.1598C54.5058 65.6885 50.1316 68.2 45.766 70.7244C45.781 75.4617 45.7896 80.1991 45.8068 84.9385C58.7189 77.4899 71.6246 70.0348 84.5302 62.5776C84.498 51.8934 84.4722 41.2092 84.44 30.525C80.156 32.9914 75.8828 35.4793 71.5945 37.9371ZM42.105 41.4112C47.6007 44.6059 53.0964 47.7985 58.5921 50.991C62.1134 48.9565 65.6369 46.9305 69.1517 44.8852C63.6603 41.6883 58.1711 38.4914 52.6732 35.3117C49.1541 37.3528 45.6306 39.3852 42.105 41.4112ZM41.2908 42.8377C41.2908 45.6715 41.3187 48.5053 41.3058 51.3412C46.7886 54.5574 52.2972 57.7264 57.7865 60.934C57.78 58.0938 57.7693 55.2535 57.7628 52.4133C52.2779 49.21 46.7822 46.0282 41.2908 42.8377ZM12.2224 65.71C11.4232 66.1826 10.5509 66.5973 9.95152 67.3321C9.52398 67.8348 9.27906 68.5309 9.45308 69.1862C9.67867 70.0649 10.4113 70.6965 11.1589 71.1455C23.7703 78.4373 36.3902 85.7119 49.0015 93.0016C50.0285 93.6182 51.0877 94.2155 52.2693 94.4819C55.03 95.1414 58.1044 94.9094 60.5709 93.427C73.208 86.0858 85.8386 78.7381 98.4757 71.399C99.2212 70.9672 99.9775 70.4537 100.386 69.6696C100.691 69.1024 100.695 68.3912 100.39 67.8262C99.9539 66.9862 99.1224 66.4662 98.3253 66.0151C94.2691 63.6797 90.2214 61.3272 86.1609 58.9983C86.1459 60.384 86.1974 61.7698 86.1544 63.1534C86.133 63.6303 85.641 63.8194 85.2994 64.0364C72.0392 71.674 58.7962 79.3418 45.5404 86.986C45.2246 87.2051 44.8056 87.233 44.4877 87.0053C38.5537 83.5571 32.6218 80.1067 26.6835 76.667C26.3656 76.4994 26.039 76.2287 26.0648 75.8313C26.0304 70.5311 26.0326 65.2309 26.0111 59.9307C25.966 59.5375 26.14 59.1336 26.5117 58.966C30.8945 56.4459 35.2623 53.8979 39.6537 51.3928C39.6773 50.8492 39.6794 50.3035 39.6687 49.76C30.5207 55.0795 21.3726 60.3948 12.2224 65.71ZM28.4796 59.7287C33.9668 62.9256 39.456 66.1139 44.9453 69.3043C48.9543 66.9905 52.9654 64.683 56.9701 62.3627C51.4851 59.1594 45.9916 55.9668 40.4937 52.785C36.4912 55.1032 32.48 57.4063 28.4796 59.7287ZM27.6568 61.1532C27.6675 65.884 27.6804 70.617 27.6976 75.35C33.1804 78.5512 38.6761 81.7309 44.1675 84.9213C44.1503 80.1883 44.1418 75.4575 44.1267 70.7244C38.6353 67.5362 33.1482 64.3393 27.6568 61.1532ZM9.38433 71.8932C9.38863 73.208 9.36499 74.525 9.38218 75.8399C9.41226 76.9721 10.3597 77.7928 11.2621 78.3321C24.1978 85.7914 37.1271 93.2637 50.065 100.725C52.4068 102.01 55.2427 102.201 57.823 101.638C59.6943 101.249 61.2412 100.076 62.8826 99.1762C74.7419 92.2797 86.6078 85.3961 98.465 78.4996C99.4103 77.9625 100.433 77.2084 100.601 76.0547C100.661 74.6819 100.603 73.3069 100.628 71.934C99.3416 72.8836 97.9043 73.5948 96.54 74.4219C85.3552 80.9123 74.1812 87.4221 62.9943 93.9125C61.6537 94.6666 60.3603 95.5647 58.85 95.9471C55.4683 96.8602 51.6462 96.5723 48.6341 94.6903C36.3086 87.5252 23.9357 80.4418 11.5951 73.3004C10.841 72.86 10.0933 72.4045 9.38433 71.8932Z" fill="#403D39"></path><path d="M68.2925 8.1189C68.8683 8.69683 68.9628 9.53687 69.1519 10.2931C69.5343 12.0613 69.9532 13.823 70.413 15.574C70.6321 16.4248 71.1714 17.2154 71.9491 17.6472C73.6271 18.6248 75.3157 19.5808 76.9894 20.5648C77.4255 20.7925 77.5823 21.2845 77.7263 21.7207C76.3319 22.0966 74.9247 22.4232 73.5368 22.8164C72.6731 23.0892 72.4433 24.1591 72.671 24.9412C73.1823 27.1347 73.7366 29.3197 74.2415 31.5154C72.7483 29.4722 71.3239 27.3796 69.8479 25.3257C69.3645 24.6425 68.5224 24.0603 67.6544 24.3138C66.245 24.6447 64.8464 25.0185 63.4392 25.3472C63.1083 24.9412 62.6378 24.4234 62.9085 23.8691C63.4263 22.2792 64.0235 20.713 64.5026 19.1125C64.7733 17.6257 63.5509 16.5193 62.8247 15.3785C61.7333 13.7177 60.4206 12.1988 59.4624 10.4564C61.2026 11.4082 62.8978 12.448 64.6337 13.4105C65.3319 13.8294 66.3675 13.5781 66.6726 12.7896C67.2505 11.247 67.7317 9.66792 68.2925 8.1189Z" fill="white"></path><path d="M53.4812 28.3723C58.9705 31.5606 64.4597 34.7489 69.949 37.9393C69.9576 39.7805 69.9597 41.6196 69.964 43.4608C64.4769 40.2639 58.9834 37.0799 53.4962 33.8831C53.4898 32.0461 53.4833 30.2092 53.4812 28.3723Z" fill="white"></path><path d="M71.5946 37.937C75.8829 35.4792 80.1562 32.9913 84.4401 30.5249C84.4724 41.2091 84.4981 51.8933 84.5304 62.5774C71.6247 70.0347 58.719 77.4897 45.8069 84.9384C45.7897 80.1989 45.7812 75.4616 45.7661 70.7243C50.1317 68.1999 54.506 65.6884 58.8694 63.1597C59.1981 62.9942 59.4452 62.6655 59.4259 62.2853C59.428 58.9938 59.4065 55.7024 59.4044 52.411C63.2394 50.2024 67.0722 47.9874 70.9071 45.7767C71.2337 45.5919 71.6097 45.3298 71.5968 44.9044C71.6269 42.5841 71.5796 40.2595 71.5946 37.937Z" fill="white"></path><path d="M41.291 42.8376C46.7824 46.0281 52.2781 49.2099 57.7631 52.4132C57.7695 55.2535 57.7803 58.0937 57.7867 60.9339C52.2975 57.7263 46.7889 54.5574 41.3061 51.3412C41.3189 48.5052 41.291 45.6714 41.291 42.8376Z" fill="white"></path><path d="M12.2226 65.71C21.3728 60.3948 30.5209 55.0795 39.6689 49.76C39.6796 50.3036 39.6775 50.8493 39.6539 51.3928C35.2625 53.8979 30.8947 56.4459 26.5119 58.9661C26.1402 59.1336 25.9662 59.5376 26.0113 59.9307C26.0328 65.2309 26.0306 70.5311 26.065 75.8313C26.0392 76.2288 26.3658 76.4995 26.6837 76.667C32.622 80.1067 38.5539 83.5571 44.4878 87.0053C44.8058 87.2331 45.2248 87.2051 45.5406 86.986C58.7964 79.3418 72.0394 71.6741 85.2996 64.0364C85.6412 63.8194 86.1332 63.6303 86.1546 63.1534C86.1976 61.7698 86.146 60.384 86.1611 58.9983C90.2216 61.3272 94.2693 63.6797 98.3255 66.0151C99.1226 66.4663 99.9541 66.9862 100.39 67.8262C100.695 68.3913 100.691 69.1024 100.386 69.6696C99.9777 70.4538 99.2214 70.9672 98.4759 71.3991C85.8388 78.7381 73.2082 86.0858 60.571 93.427C58.1046 94.9094 55.0302 95.1415 52.2695 94.4819C51.0878 94.2155 50.0287 93.6182 49.0017 93.0016C36.3904 85.712 23.7705 78.4374 11.1591 71.1456C10.4115 70.6965 9.67886 70.0649 9.45327 69.1862C9.27925 68.5309 9.52417 67.8348 9.95171 67.3321C10.5511 66.5973 11.4234 66.1827 12.2226 65.71Z" fill="white"></path><path d="M27.657 61.1531C33.1484 64.3392 38.6355 67.5361 44.1269 70.7244C44.1419 75.4574 44.1505 80.1882 44.1677 84.9212C38.6763 81.7308 33.1806 78.5511 27.6978 75.3499C27.6806 70.6169 27.6677 65.8839 27.657 61.1531Z" fill="white"></path><path d="M9.38447 71.8931C10.0935 72.4044 10.8411 72.8599 11.5952 73.3003C23.9358 80.4417 36.3087 87.5251 48.6343 94.6901C51.6464 96.5722 55.4685 96.8601 58.8501 95.947C60.3605 95.5645 61.6538 94.6665 62.9944 93.9124C74.1813 87.422 85.3554 80.9122 96.5401 74.4218C97.9044 73.5946 99.3417 72.8835 100.629 71.9339C100.603 73.3067 100.661 74.6817 100.601 76.0546C100.433 77.2083 99.4104 77.9624 98.4651 78.4995C86.6079 85.396 74.7421 92.2796 62.8827 99.1761C61.2413 100.076 59.6944 101.249 57.8231 101.638C55.2429 102.201 52.4069 102.01 50.0651 100.725C37.1272 93.2636 24.1979 85.7913 11.2622 78.3319C10.3599 77.7927 9.4124 76.972 9.38232 75.8397C9.36514 74.5249 9.38877 73.2079 9.38447 71.8931Z" fill="white"></path><path d="M54.2932 26.9437C56.7145 25.5515 59.1293 24.1528 61.5485 22.7563C60.861 24.0433 61.2456 25.6954 62.3993 26.5698C62.8397 26.9243 63.437 27.1069 63.9913 26.9458C65.3877 26.6106 66.7821 26.2712 68.1721 25.9124C69.5493 27.5667 70.6815 29.4101 71.9534 31.1439C72.5807 31.9968 73.15 33.1548 74.3252 33.2966C75.3672 33.4706 76.1321 32.3362 75.8829 31.3866C75.3737 29.0212 74.7377 26.6815 74.2157 24.3183C74.4176 24.2667 74.8237 24.1636 75.0256 24.112C77.8852 25.7835 80.7641 27.4249 83.6172 29.1114C79.3397 31.5778 75.06 34.0399 70.7932 36.5214C65.2825 33.3481 59.7932 30.1362 54.2932 26.9437Z" fill="#FDD655"></path><path d="M42.1052 41.4112C45.6308 39.3852 49.1542 37.3528 52.6734 35.3118C58.1712 38.4915 63.6605 41.6883 69.1519 44.8852C65.6371 46.9305 62.1136 48.9565 58.5923 50.9911C53.0966 47.7985 47.6009 44.6059 42.1052 41.4112Z" fill="#FDD655"></path><path d="M28.4797 59.7289C32.4801 57.4064 36.4913 55.1033 40.4938 52.7852C45.9916 55.967 51.4852 59.1596 56.9702 62.3629C52.9655 64.6832 48.9543 66.9906 44.9454 69.3045C39.4561 66.1141 33.9668 62.9258 28.4797 59.7289Z" fill="#FDD655"></path><path d="M51.3579 26.4745L49.9222 29.5853C49.6895 30.0894 49.0908 30.3074 48.5884 30.071L44.5036 28.1487C43.5691 27.709 42.6624 28.8018 43.2671 29.639L47.2222 35.1153C47.398 35.3588 47.4551 35.6683 47.3777 35.9585L45.9941 41.1473C45.7858 41.9284 46.5423 42.621 47.302 42.3447L50.3032 41.2534C50.717 41.1029 51.1807 41.2409 51.4449 41.5932L55.9584 47.6111C56.5915 48.4553 57.931 47.8705 57.7422 46.8323L56.6426 40.7841C56.5591 40.3253 56.8039 39.8698 57.2325 39.6861L61.4548 37.8765C62.2476 37.5367 62.2671 36.4198 61.4867 36.0526L55.415 33.1953C55.1515 33.0713 54.9552 32.8387 54.8773 32.5581L53.2294 26.6259C52.9802 25.7288 51.7481 25.6291 51.3579 26.4745Z" fill="white" stroke="#403D39" stroke-width="1.5"></path></svg>