<svg xmlns="http://www.w3.org/2000/svg" width="1200" height="282" viewBox="0 0 1200 282" fill="none"><path d="M117.966 165.59C108.883 181.322 95.9493 192.787 82.4321 198.638C68.9147 204.489 54.8991 204.702 43.4854 198.112C32.0717 191.522 25.248 179.278 23.5566 164.646C21.8652 150.014 25.3275 133.081 34.4098 117.349C43.4922 101.618 56.426 90.1532 69.9433 84.302C83.4606 78.4508 97.4762 78.2383 108.89 84.828C120.304 91.4177 127.127 103.662 128.819 118.294C130.51 132.926 127.048 149.859 117.966 165.59Z" fill="#A9D284" stroke="#403D39" stroke-width="2.5"></path><path d="M117.89 164.98C109.153 180.114 97.0435 191.327 84.5853 197.255C72.1211 203.186 59.4333 203.782 49.3376 197.953C39.2419 192.124 33.4141 180.838 32.3181 167.079C31.2226 153.326 34.8793 137.232 43.6168 122.098C52.3543 106.964 64.4636 95.7506 76.9219 89.8228C89.386 83.8922 102.074 83.2963 112.17 89.125C122.265 94.9538 128.093 106.24 129.189 119.999C130.285 133.752 126.628 149.846 117.89 164.98Z" fill="white" stroke="#403D39" stroke-width="2.5"></path><path d="M107.531 158.525C101.246 169.412 92.5426 177.464 83.6084 181.715C74.6684 185.969 65.623 186.372 58.4525 182.232C51.282 178.093 47.1086 170.057 46.3224 160.188C45.5368 150.325 48.159 138.762 54.4441 127.876C60.7293 116.989 69.4327 108.937 78.3668 104.686C87.3069 100.432 96.3523 100.029 103.523 104.168C110.693 108.308 114.867 116.344 115.653 126.213C116.438 136.075 113.816 147.639 107.531 158.525Z" fill="#A9D284" stroke="#403D39" stroke-width="2.5"></path><path d="M89.6423 147.873C87.5246 151.541 84.6089 154.222 81.6634 155.623C78.712 157.028 75.8561 157.104 73.6566 155.834C71.4571 154.564 70.0948 152.053 69.8353 148.794C69.5763 145.543 70.4405 141.677 72.5583 138.009C74.676 134.341 77.5917 131.66 80.5372 130.258C83.4886 128.854 86.3445 128.778 88.544 130.048C90.7435 131.318 92.1058 133.829 92.3653 137.087C92.6243 140.339 91.7601 144.205 89.6423 147.873Z" fill="white" stroke="#403D39" stroke-width="2.5"></path><path d="M76.9666 139.797L76.9816 139.773L76.9955 139.749C77.6416 138.63 78.3732 137.739 79.0155 137.075C79.5676 136.504 80.5283 136.382 81.4552 136.917L113.564 155.455C114.879 156.215 115.33 157.897 114.57 159.212L112.222 163.278C111.463 164.594 109.781 165.044 108.466 164.285L76.5878 145.88C75.5872 145.302 75.1496 144.253 75.4262 143.331C75.7685 142.189 76.2696 140.889 76.9666 139.797Z" fill="white" stroke="#403D39" stroke-width="2.5"></path><circle cx="116.422" cy="163.309" r="10.8409" fill="#A9D284" stroke="#403D39" stroke-width="2.5"></circle><g filter="url(#filter0_f_0_1)"><path d="M221.723 26.0502C215.357 37.6947 206.299 46.1675 196.854 50.4859C187.406 54.8051 177.668 54.9381 169.766 50.1199C161.865 45.3016 157.104 36.3272 155.922 25.5263C154.74 14.7274 157.159 2.20605 163.524 -9.43842C169.889 -21.0829 178.947 -29.5557 188.393 -33.8741C197.84 -38.1933 207.579 -38.3263 215.48 -33.5081C223.382 -28.6898 228.142 -19.7154 229.324 -8.9145C230.506 1.8844 228.088 14.4057 221.723 26.0502Z" fill="#A9D284" stroke="#403D39" stroke-width="2.5"></path><path d="M221.67 25.5965C215.545 36.8012 207.063 45.0888 198.359 49.4632C189.646 53.8418 180.848 54.2478 173.885 50.0019C166.922 45.756 162.856 37.5056 162.09 27.3467C161.324 17.1978 163.879 5.29634 170.004 -5.90832C176.129 -17.113 184.61 -25.4006 193.315 -29.7749C202.028 -34.1536 210.826 -34.5596 217.789 -30.3137C224.752 -26.0678 228.818 -17.8174 229.584 -7.65851C230.349 2.49039 227.794 14.3919 221.67 25.5965Z" fill="white" stroke="#403D39" stroke-width="2.5"></path><path d="M214.378 20.7982C209.98 28.8453 203.895 34.7832 197.671 37.911C191.439 41.0432 185.204 41.3059 180.3 38.3155C175.396 35.3251 172.495 29.4912 171.947 22.2243C171.399 14.9674 173.226 6.43344 177.625 -1.61365C182.024 -9.66074 188.108 -15.5986 194.332 -18.7264C200.564 -21.8586 206.799 -22.1214 211.703 -19.1309C216.607 -16.1405 219.509 -10.3066 220.057 -3.03972C220.604 4.21717 218.777 12.7511 214.378 20.7982Z" fill="#A9D284" stroke="#403D39" stroke-width="2.5"></path><path d="M201.788 12.8793C200.322 15.5606 198.311 17.5054 196.302 18.5151C194.285 19.529 192.407 19.5484 191.001 18.6914C189.596 17.8345 188.673 16.107 188.496 13.7546C188.319 11.4121 188.908 8.6007 190.374 5.91936C191.84 3.23802 193.85 1.29318 195.859 0.283559C197.877 -0.730375 199.755 -0.749759 201.16 0.107197C202.566 0.964152 203.489 2.69163 203.666 5.04406C203.843 7.3865 203.253 10.1979 201.788 12.8793Z" fill="white" stroke="#403D39" stroke-width="2.5"></path><path d="M193.47 7.26024L193.484 7.23707L193.497 7.21326C193.81 6.64098 194.152 6.15081 194.482 5.74274C194.942 5.17314 195.853 5.02039 196.794 5.59384L217.793 18.3989C219.09 19.1896 219.55 20.9109 218.822 22.2436L218.191 23.397C217.463 24.7297 215.821 25.169 214.524 24.3783L193.749 11.7101C192.738 11.0931 192.331 10.0167 192.625 9.14443C192.845 8.49351 193.124 7.83196 193.47 7.26024Z" fill="white" stroke="#403D39" stroke-width="2.5"></path><path d="M228.201 24.5401C228.201 28.8789 224.887 32.2781 220.941 32.2781C216.995 32.2781 213.681 28.8789 213.681 24.5401C213.681 20.2012 216.995 16.802 220.941 16.802C224.887 16.802 228.201 20.2012 228.201 24.5401Z" fill="#A9D284" stroke="#403D39" stroke-width="2.5"></path></g><path d="M295.202 255.165C288.259 267.867 278.376 277.114 268.064 281.828C257.751 286.544 247.104 286.695 238.459 281.423C229.814 276.152 224.615 266.338 223.324 254.547C222.034 242.757 224.674 229.094 231.618 216.392C238.562 203.69 248.444 194.443 258.756 189.729C269.07 185.014 279.716 184.862 288.361 190.134C297.007 195.406 302.206 205.219 303.496 217.011C304.787 228.8 302.146 242.463 295.202 255.165Z" fill="#A9D284" stroke="#403D39" stroke-width="2.5"></path><path d="M295.145 254.671C288.464 266.892 279.21 275.937 269.707 280.713C260.195 285.493 250.572 285.945 242.946 281.295C235.319 276.644 230.878 267.616 230.042 256.525C229.206 245.445 231.996 232.459 238.676 220.237C245.357 208.016 254.611 198.971 264.114 194.196C273.626 189.415 283.25 188.963 290.876 193.614C298.502 198.264 302.943 207.292 303.779 218.383C304.615 229.463 301.825 242.449 295.145 254.671Z" fill="white" stroke="#403D39" stroke-width="2.5"></path><path d="M287.203 249.444C282.402 258.226 275.76 264.711 268.958 268.129C262.148 271.551 255.317 271.847 249.934 268.565C244.55 265.282 241.377 258.886 240.779 250.945C240.181 243.015 242.177 233.697 246.977 224.915C251.778 216.133 258.42 209.648 265.222 206.23C272.032 202.808 278.863 202.512 284.247 205.794C289.63 209.077 292.803 215.473 293.402 223.414C294 231.344 292.003 240.662 287.203 249.444Z" fill="#A9D284" stroke="#403D39" stroke-width="2.5"></path><path d="M273.488 240.818C271.882 243.756 269.677 245.891 267.467 247.002C265.248 248.117 263.162 248.148 261.59 247.189C260.018 246.23 259 244.307 258.805 241.72C258.611 239.143 259.259 236.058 260.865 233.121C262.471 230.184 264.676 228.048 266.886 226.937C269.105 225.822 271.191 225.791 272.763 226.75C274.335 227.709 275.353 229.632 275.548 232.219C275.742 234.796 275.094 237.881 273.488 240.818Z" fill="white" stroke="#403D39" stroke-width="2.5"></path><path d="M264.24 234.577L264.254 234.554L264.267 234.53C264.651 233.827 265.076 233.237 265.476 232.76C265.96 232.183 266.883 232.042 267.818 232.612L291.185 246.861C292.482 247.651 292.943 249.373 292.214 250.705L291.185 252.588C290.456 253.921 288.814 254.36 287.518 253.57L264.375 239.458C263.369 238.844 262.951 237.764 263.239 236.868C263.488 236.089 263.818 235.275 264.24 234.577Z" fill="white" stroke="#403D39" stroke-width="2.5"></path><path d="M302.276 253.462C302.276 258.244 298.622 262.003 294.256 262.003C289.89 262.003 286.236 258.244 286.236 253.462C286.236 248.68 289.89 244.922 294.256 244.922C298.622 244.922 302.276 248.68 302.276 253.462Z" fill="#A9D284" stroke="#403D39" stroke-width="2.5"></path><path d="M1086 120.924C1078.99 133.739 1069.02 143.068 1058.62 147.825C1048.21 152.582 1037.47 152.736 1028.75 147.416C1020.02 142.095 1014.78 132.192 1013.47 120.295C1012.17 108.4 1014.84 94.6159 1021.84 81.8008C1028.85 68.9857 1038.82 59.6565 1049.22 54.8998C1059.63 50.1423 1070.37 49.9891 1079.1 55.3092C1087.82 60.6293 1093.07 70.5325 1094.37 82.4294C1095.67 94.3243 1093.01 108.109 1086 120.924Z" fill="#A9D284" stroke="#403D39" stroke-width="2.5"></path><path d="M1085.94 120.425C1079.2 132.755 1069.87 141.881 1060.28 146.699C1050.68 151.522 1040.97 151.979 1033.27 147.286C1025.58 142.592 1021.09 133.481 1020.25 122.291C1019.41 111.111 1022.22 98.0096 1028.96 85.6795C1035.7 73.3494 1045.04 64.2242 1054.63 59.4056C1064.22 54.5827 1073.93 54.1256 1081.63 58.819C1089.33 63.5124 1093.81 72.6241 1094.65 83.8138C1095.5 94.9935 1092.68 108.095 1085.94 120.425Z" fill="white" stroke="#403D39" stroke-width="2.5"></path><path d="M1077.93 115.153C1073.09 124.014 1066.39 130.557 1059.52 134.006C1052.65 137.459 1045.76 137.759 1040.32 134.445C1034.89 131.131 1031.68 124.675 1031.08 116.663C1030.48 108.661 1032.49 99.2591 1037.33 90.3985C1042.18 81.5379 1048.88 74.9946 1055.74 71.5457C1062.61 68.0924 1069.51 67.7927 1074.94 71.1066C1080.38 74.4205 1083.58 80.8769 1084.18 88.8889C1084.79 96.8909 1082.77 106.292 1077.93 115.153Z" fill="#A9D284" stroke="#403D39" stroke-width="2.5"></path><path d="M1064.1 106.452C1062.48 109.417 1060.25 111.572 1058.02 112.694C1055.78 113.82 1053.67 113.852 1052.08 112.882C1050.49 111.913 1049.46 109.968 1049.26 107.356C1049.07 104.754 1049.72 101.641 1051.34 98.6759C1052.96 95.7112 1055.19 93.5554 1057.42 92.4339C1059.66 91.3081 1061.77 91.2759 1063.36 92.2455C1064.95 93.2151 1065.98 95.1595 1066.18 97.7715C1066.37 100.374 1065.72 103.487 1064.1 106.452Z" fill="white" stroke="#403D39" stroke-width="2.5"></path><path d="M1054.75 100.145L1054.76 100.122L1054.78 100.098C1055.17 99.3807 1055.6 98.78 1056.01 98.2954C1056.49 97.718 1057.42 97.5774 1058.35 98.1471L1081.97 112.55C1083.27 113.341 1083.73 115.062 1083 116.395L1081.93 118.356C1081.2 119.688 1079.56 120.128 1078.26 119.337L1054.87 105.071C1053.86 104.458 1053.44 103.377 1053.73 102.478C1053.98 101.686 1054.32 100.856 1054.75 100.145Z" fill="white" stroke="#403D39" stroke-width="2.5"></path><path d="M1093.14 119.2C1093.14 124.03 1089.45 127.826 1085.04 127.826C1080.63 127.826 1076.94 124.03 1076.94 119.2C1076.94 114.371 1080.63 110.574 1085.04 110.574C1089.45 110.574 1093.14 114.371 1093.14 119.2Z" fill="#A9D284" stroke="#403D39" stroke-width="2.5"></path><g filter="url(#filter1_f_0_1)"><path d="M1179.39 220.166C1174.32 229.449 1167.1 236.195 1159.59 239.629C1152.07 243.064 1144.36 243.156 1138.12 239.35C1131.88 235.544 1128.1 228.444 1127.16 219.854C1126.22 211.266 1128.14 201.293 1133.22 192.01C1138.29 182.727 1145.51 175.982 1153.02 172.548C1160.53 169.113 1168.24 169.02 1174.48 172.826C1180.73 176.632 1184.51 183.733 1185.45 192.323C1186.39 200.911 1184.46 210.884 1179.39 220.166Z" fill="#A9D284" stroke="#403D39" stroke-width="2.5"></path><path d="M1179.35 219.803C1174.46 228.738 1167.71 235.336 1160.78 238.814C1153.86 242.296 1146.9 242.599 1141.42 239.256C1135.94 235.913 1132.71 229.4 1132.1 221.321C1131.49 213.251 1133.52 203.771 1138.4 194.837C1143.29 185.902 1150.05 179.304 1156.97 175.826C1163.9 172.344 1170.85 172.041 1176.33 175.384C1181.82 178.727 1185.04 185.24 1185.65 193.32C1186.26 201.389 1184.23 210.869 1179.35 219.803Z" fill="white" stroke="#403D39" stroke-width="2.5"></path><path d="M1173.51 215.961C1170.01 222.367 1165.17 227.084 1160.23 229.564C1155.29 232.048 1150.39 232.236 1146.55 229.898C1142.72 227.56 1140.42 222.983 1139.99 217.219C1139.56 211.465 1141 204.681 1144.51 198.275C1148.01 191.869 1152.85 187.153 1157.78 184.673C1162.72 182.188 1167.63 182 1171.46 184.338C1175.29 186.676 1177.59 191.254 1178.03 197.018C1178.46 202.771 1177.01 209.555 1173.51 215.961Z" fill="#A9D284" stroke="#403D39" stroke-width="2.5"></path><path d="M1163.43 209.62C1162.27 211.73 1160.7 213.249 1159.14 214.033C1157.57 214.821 1156.16 214.815 1155.12 214.185C1154.09 213.556 1153.38 212.266 1153.24 210.437C1153.1 208.618 1153.56 206.417 1154.71 204.307C1155.87 202.197 1157.44 200.678 1159 199.894C1160.57 199.106 1161.99 199.112 1163.02 199.742C1164.05 200.372 1164.76 201.662 1164.9 203.49C1165.04 205.309 1164.58 207.511 1163.43 209.62Z" fill="white" stroke="#403D39" stroke-width="2.5"></path><path d="M1157.19 205.39L1157.2 205.367L1157.21 205.343C1157.38 205.047 1157.55 204.778 1157.72 204.538C1158.11 203.996 1158.98 203.807 1159.94 204.392L1175.89 214.115C1177.06 214.827 1177.47 216.379 1176.81 217.58C1176.16 218.782 1174.68 219.178 1173.51 218.465L1157.79 208.88C1156.75 208.248 1156.39 207.184 1156.7 206.394C1156.84 206.037 1157 205.695 1157.19 205.39Z" fill="white" stroke="#403D39" stroke-width="2.5"></path><path d="M1184.54 219.087C1184.54 222.437 1181.99 225.034 1178.98 225.034C1175.97 225.034 1173.41 222.437 1173.41 219.087C1173.41 215.738 1175.97 213.14 1178.98 213.14C1181.99 213.14 1184.54 215.738 1184.54 219.087Z" fill="#A9D284" stroke="#403D39" stroke-width="2.5"></path></g><defs><filter id="filter0_f_0_1" x="150.408" y="-42.3936" width="84.5315" height="101.399" filterUnits="userSpaceOnUse" color-interpolation-filters="sRGB"><feGaussianBlur stdDeviation="2"></feGaussianBlur></filter><filter id="filter1_f_0_1" x="1120.7" y="163.696" width="71.2791" height="84.7849" filterUnits="userSpaceOnUse" color-interpolation-filters="sRGB"><feGaussianBlur stdDeviation="2.5"></feGaussianBlur></filter></defs></svg>