<svg xmlns="http://www.w3.org/2000/svg" width="64" height="64" viewBox="0 0 64 64" fill="none"><path d="M39.005 1.86499C39.64 1.50124 40.3763 1.24499 41.1175 1.35249C41.5775 1.41124 41.9775 1.66624 42.3713 1.89374C43.3625 2.48124 44.3713 3.03999 45.3525 3.64374C46.1525 4.13249 46.4838 5.10874 46.5025 6.00499C46.525 7.49874 46.5138 8.99373 46.5238 10.4875C46.9325 10.4275 47.4813 10.6675 47.76 10.2612C48.1588 9.82248 48.515 9.34499 48.935 8.92499C49.1525 8.69999 49.5088 8.56374 49.8063 8.71374C50.1863 8.89874 50.5575 9.10748 50.9038 9.35123C51.1963 9.56873 51.1825 9.98874 51.0813 10.3037C50.8838 10.9237 50.6525 11.5325 50.4538 12.1525C50.8875 12.7637 51.2013 13.45 51.3988 14.1737C51.8475 14.0962 52.2913 13.9675 52.7488 13.9437C53.215 13.965 53.3713 14.4875 53.3275 14.8775C53.275 15.59 53.5 16.41 53.035 17.0275C52.6225 17.53 52.0988 17.925 51.6563 18.4C51.4225 18.625 51.4013 18.965 51.3275 19.2625C51.135 20.2 50.8 21.0975 50.475 21.995C50.7038 22.415 51.0025 22.8 51.1675 23.2512C51.2763 23.8787 50.8 24.3887 50.535 24.9112C50.23 25.3837 50.0375 25.9837 49.53 26.2825C49.02 26.495 48.4425 26.2925 47.92 26.43C47.465 26.9312 47.0038 27.4375 46.585 27.9687C46.5563 29.185 46.59 30.4025 46.5838 31.6187C50.8438 34.0812 55.1075 36.5375 59.3675 39C60.1963 39.4662 60.9875 40.245 61.0175 41.2537C61.0413 42.5025 61.015 43.7537 61.025 45.0025C61.0225 45.5325 61.06 46.0912 60.8225 46.5812C60.5213 47.2412 59.935 47.7137 59.32 48.0687C51.8675 52.405 44.41 56.735 36.955 61.0687C36.1475 61.5162 35.3775 62.06 34.4825 62.3237C32.935 62.7937 31.2463 62.7912 29.6963 62.3287C28.8463 62.0825 28.1075 61.5812 27.345 61.15C20.0538 56.9412 12.7625 52.7312 5.4713 48.5237C4.72755 48.0912 3.90505 47.7012 3.40005 46.9725C3.08505 46.5512 2.9563 46.0212 2.97255 45.5012C2.9838 44.0862 2.96755 42.6725 2.99005 41.2587C3.02255 40.2887 3.7563 39.515 4.55255 39.0525C9.59005 36.1225 14.63 33.1962 19.6663 30.2662C19.655 26.0125 19.6438 21.76 19.6288 17.5062C19.5913 15.8287 20.2701 14.2112 21.2313 12.8662C21.8088 12.075 22.5238 11.3725 23.3788 10.885C28.5875 7.87874 33.7963 4.87124 39.005 1.86499ZM39.1488 2.65499C34.0313 5.61374 28.91 8.56748 23.7913 11.5212C22.7088 12.1287 21.8825 13.1112 21.2913 14.1875C22.2163 14.715 23.1338 15.255 24.0538 15.79C24.705 14.66 25.5638 13.6112 26.6975 12.9387C31.8975 9.92999 37.1038 6.93249 42.305 3.92499C42.67 3.70999 43.065 3.54999 43.4638 3.40624C42.775 3.01749 42.1063 2.59499 41.4075 2.22624C40.6451 1.86624 39.81 2.25749 39.1488 2.65499ZM42.8675 4.47874C37.6325 7.49874 32.3988 10.52 27.165 13.5425C26.4675 13.9412 25.8788 14.5062 25.39 15.14C24.45 16.3887 23.7825 17.915 23.8125 19.5012C23.845 29.045 23.8638 38.5887 23.8963 48.1337C23.9025 48.8275 24.0963 49.6287 24.7375 50.005C25.425 50.3825 26.2425 50.095 26.8713 49.73C31.995 46.775 37.1175 43.815 42.24 40.8575C43.91 39.9637 45.0725 38.2962 45.605 36.505C45.9125 35.5337 45.8225 34.5075 45.83 33.5062C45.82 31.885 45.8338 30.2625 45.8063 28.6412C45.68 28.8 45.5075 28.935 45.4363 29.1312C45.225 29.7937 45.1425 30.4937 44.89 31.1437C44.7025 31.5962 44.2463 31.8275 43.8388 32.0475C43.77 32.8812 44.0238 33.8025 43.5588 34.5575C43.3825 34.8725 43.1063 35.12 42.795 35.2962C37.7225 38.225 32.6475 41.15 27.5788 44.0837C27.2238 44.2825 26.8163 44.5662 26.3938 44.3962C26.0363 44.2625 25.885 43.8612 25.8925 43.5062C25.8613 34.9625 25.84 26.4175 25.8088 17.8737C25.7675 17.1437 26.1613 16.4087 26.8 16.0512C31.8413 13.1387 36.8838 10.2325 41.9238 7.31874C42.2638 7.13999 42.5888 6.86624 42.9913 6.86749C43.395 6.86124 43.72 7.22873 43.7388 7.61749C43.7788 8.19748 43.755 8.77998 43.7538 9.35998C44.07 9.20873 44.495 9.04374 44.7763 9.35748C45.045 9.76124 45.1263 10.2587 45.3088 10.705C45.4225 10.6825 45.6513 10.6387 45.7663 10.6162C45.7575 9.12123 45.7613 7.62624 45.75 6.13124C45.745 5.42748 45.5488 4.60124 44.8825 4.23874C44.2325 3.90124 43.465 4.13999 42.8675 4.47874ZM27.2725 16.6512C26.82 16.8737 26.5288 17.3675 26.5675 17.8725C26.6075 26.4887 26.6025 35.105 26.6638 43.7212C31.87 40.745 37.05 37.725 42.25 34.7375C42.4788 34.6037 42.7225 34.4675 42.865 34.2337C43.2125 33.7337 43.0363 33.0937 43.0825 32.5262C42.7813 32.63 42.3938 32.7487 42.1488 32.4662C41.8813 32.0612 41.79 31.5687 41.61 31.1237C40.8863 31.3187 40.135 31.3912 39.3875 31.33C38.87 31.8725 38.44 32.5012 37.8763 32.9975C37.5563 33.2875 37.1138 33.1775 36.7963 32.95C36.3838 32.6862 35.7038 32.4875 35.7713 31.875C35.9151 31.1162 36.26 30.4125 36.47 29.6712C36.0375 29.0587 35.7275 28.3725 35.5263 27.6525C35.1038 27.7275 34.6863 27.8412 34.2563 27.8775C33.9088 27.9225 33.6138 27.5887 33.6113 27.2575C33.5838 26.755 33.5988 26.2512 33.6 25.7475C33.5963 25.4025 33.68 25.0475 33.91 24.7812C34.3338 24.285 34.8525 23.8812 35.2913 23.4C35.5425 23.1225 35.5413 22.7187 35.6413 22.3762C35.82 21.5112 36.1625 20.695 36.4263 19.8562C36.265 19.3737 35.86 19.0025 35.745 18.5025C35.685 17.9537 36.0688 17.51 36.31 17.055C36.5975 16.5987 36.8 16.0762 37.1863 15.6912C37.6863 15.2362 38.4238 15.5687 39.0063 15.395C39.4788 14.9075 39.8725 14.345 40.3675 13.875C40.7038 13.4987 41.1388 13.215 41.4363 12.805C41.7225 12.115 41.7538 11.345 42.0463 10.6575C42.2225 10.2487 42.6288 10.03 42.9963 9.82248C43.0063 9.07999 43.005 8.33624 42.9875 7.59374C37.7388 10.5937 32.515 13.64 27.2725 16.6512ZM48.2875 10.8C48.0875 11.025 47.8375 11.2662 47.5138 11.255C46.9275 11.2262 46.3325 11.2225 45.7625 11.3787C45.4275 11.465 44.9938 11.5825 44.7463 11.26C44.515 10.8637 44.42 10.405 44.2575 9.97748C43.77 10.2925 43.2088 10.5075 42.7738 10.8937C42.3425 11.79 42.5025 12.9912 41.6738 13.6737C41.0088 14.26 40.3975 14.9062 39.8488 15.6012C39.65 15.835 39.4363 16.105 39.12 16.17C38.6675 16.2387 38.2075 16.1662 37.7538 16.2212C37.565 16.345 37.4775 16.5637 37.36 16.7475C37.0625 17.29 36.715 17.805 36.465 18.3737C36.75 18.9512 37.3813 19.5187 37.1113 20.2187C36.7588 21.1662 36.4363 22.1287 36.2438 23.1237C36.0401 24.1437 34.95 24.5812 34.4113 25.3887C34.2925 25.95 34.3863 26.5362 34.3588 27.1062C34.8263 27.0337 35.2888 26.8837 35.7663 26.885C36.1738 26.985 36.2476 27.4412 36.3613 27.7812C36.5088 28.2912 36.7738 28.7537 37.0638 29.195C37.2613 29.465 37.2288 29.82 37.1263 30.1212C36.9263 30.725 36.7025 31.3225 36.5088 31.9287C36.81 32.1012 37.1163 32.2675 37.42 32.4362C37.8925 31.9012 38.3338 31.3362 38.835 30.8275C39.325 30.3587 40.0475 30.7112 40.64 30.5487C41.1263 30.5337 41.6925 30.135 42.1225 30.51C42.4038 30.905 42.4825 31.405 42.6663 31.8475C43.155 31.5262 43.7375 31.325 44.1575 30.9137C44.4525 30.225 44.4888 29.4537 44.765 28.7575C44.9688 28.32 45.3938 28.0537 45.7213 27.7175C46.3063 27.1762 46.7975 26.5475 47.3213 25.95C47.8063 25.4025 48.5988 25.735 49.2213 25.5875C49.6838 24.9225 50.0975 24.2087 50.44 23.475C50.2675 23.0412 49.9463 22.6812 49.7788 22.245C49.6638 21.8812 49.8363 21.515 49.9575 21.1775C50.2688 20.3875 50.4938 19.5675 50.6663 18.7375C50.8613 17.685 52.0163 17.2625 52.5275 16.4062C52.6213 15.8512 52.5438 15.2812 52.5675 14.72C52.0888 14.7825 51.6125 14.9662 51.125 14.9237C50.5775 14.7337 50.635 14.0475 50.4013 13.6112C50.2275 13.0162 49.5513 12.5575 49.7513 11.885C49.9413 11.2125 50.2138 10.5675 50.4113 9.89748C50.1075 9.72873 49.8025 9.56248 49.4988 9.39499C49.0975 9.86499 48.6925 10.3337 48.2875 10.8ZM20.9488 14.8637C20.5775 15.735 20.35 16.6762 20.3875 17.6275C20.4163 27.0437 20.4438 36.46 20.4675 45.8762C20.46 46.6062 20.5575 47.4687 21.195 47.9337C21.8675 48.3662 22.58 48.7337 23.2613 49.1525C23.185 48.73 23.13 48.3012 23.135 47.8712C23.11 38.37 23.08 28.87 23.055 19.3687C23.0438 18.365 23.335 17.3887 23.7138 16.4687C22.7925 15.935 21.8725 15.395 20.9488 14.8637ZM4.9463 39.7C4.34255 40.0487 3.72255 40.6162 3.7463 41.3725C3.7813 42.0812 4.3588 42.605 4.93255 42.9412C12.7975 47.4912 20.6713 52.0275 28.5375 56.5762C30.1113 57.575 32.1075 57.7487 33.895 57.3262C34.8388 57.1175 35.6463 56.5675 36.4725 56.095C43.9838 51.73 51.4938 47.3637 59.005 43C59.64 42.6362 60.3025 42.0412 60.2588 41.2437C60.2 40.505 59.5725 39.99 58.9725 39.6475C54.845 37.2625 50.7163 34.8787 46.5863 32.4987C46.5763 33.485 46.62 34.4737 46.57 35.46C46.3863 37.3237 45.47 39.0837 44.1475 40.3962C43.465 41.0912 42.5863 41.5287 41.755 42.0137C36.8925 44.82 32.0325 47.63 27.1688 50.4312C26.3263 50.9187 25.2213 51.17 24.335 50.6487C23.18 49.98 22.0213 49.3137 20.8738 48.6325C20.0238 48.1137 19.71 47.0612 19.7138 46.1162C19.6938 41.125 19.685 36.1337 19.6688 31.1425C14.7613 33.995 9.8538 36.8475 4.9463 39.7ZM3.7363 42.9887C3.74505 43.9112 3.71755 44.835 3.74005 45.7587C3.7863 46.5312 4.4538 47.0675 5.0763 47.4225C13.0325 52.0075 20.98 56.605 28.9363 61.19C30.4513 61.9962 32.2775 62.1012 33.9263 61.7C34.8588 61.4862 35.6525 60.9362 36.4725 60.4725C44.0075 56.09 51.5475 51.715 59.0813 47.33C59.6425 46.9837 60.2175 46.4637 60.2563 45.76C60.28 44.8425 60.2563 43.9237 60.265 43.0062C59.5338 43.6512 58.6413 44.0625 57.8163 44.5687C50.4838 48.825 43.1588 53.0925 35.825 57.3475C34.6788 58.0362 33.3225 58.3 31.9975 58.2912C30.7763 58.2737 29.5338 58.025 28.4663 57.4125C20.7 52.9237 12.93 48.4437 5.16255 43.9587C4.65755 43.6825 4.1713 43.3675 3.7363 42.9887Z" fill="#403D39"></path><path d="M44.6912 15.225C45.5425 15.0425 46.505 15.2425 47.1162 15.89C47.9037 16.7062 48.08 17.9175 47.9962 19.0062C47.8287 20.8712 47.005 22.6375 45.8537 24.0975C44.95 25.215 43.7862 26.2187 42.3637 26.575C41.4512 26.815 40.3862 26.6087 39.7475 25.8812C38.9587 25.005 38.8225 23.74 38.9437 22.6125C39.1675 20.755 40.0187 19.005 41.2 17.5687C42.1125 16.49 43.2812 15.5287 44.6912 15.225ZM44.42 16.08C43.0912 16.5675 42.0425 17.6062 41.2437 18.7462C40.3175 20.1062 39.665 21.7112 39.6637 23.375C39.6725 24.1487 39.8537 25.0075 40.4762 25.5287C41.0612 26.0225 41.9137 25.9812 42.5912 25.7175C43.8625 25.2225 44.87 24.225 45.6462 23.1262C46.56 21.8025 47.2075 20.245 47.2575 18.6212C47.2712 17.7975 47.11 16.87 46.4512 16.3062C45.8912 15.8312 45.0787 15.8437 44.42 16.08Z" fill="#403D39"></path><path d="M37.1764 40.675C37.5589 40.3312 38.0826 40.995 37.6376 41.2662C36.1801 42.1475 34.6901 42.9775 33.2139 43.8287C33.0064 44.0012 32.6351 43.8987 32.5989 43.6175C32.5126 43.3637 32.7814 43.2037 32.9651 43.1012C34.3739 42.3012 35.7676 41.4762 37.1764 40.675Z" fill="#403D39"></path><path d="M39.1488 2.65499C39.81 2.25749 40.645 1.86623 41.4075 2.22623C42.1063 2.59499 42.775 3.01749 43.4638 3.40624C43.065 3.54999 42.67 3.70999 42.305 3.92499C37.1038 6.93249 31.8975 9.92999 26.6975 12.9387C25.5638 13.6112 24.705 14.66 24.0538 15.79C23.1338 15.255 22.2163 14.715 21.2913 14.1875C21.8825 13.1112 22.7088 12.1287 23.7913 11.5212C28.91 8.56748 34.0313 5.61373 39.1488 2.65499Z" fill="#A9D284"></path><path d="M27.2727 16.6513C32.5152 13.64 37.7389 10.5938 42.9877 7.59375C43.0052 8.33625 43.0064 9.08 42.9964 9.8225C42.6289 10.03 42.2227 10.2488 42.0464 10.6575C41.7539 11.345 41.7227 12.115 41.4364 12.805C41.1389 13.215 40.7039 13.4988 40.3677 13.875C39.8727 14.345 39.4789 14.9075 39.0064 15.395C38.4239 15.5688 37.6864 15.2362 37.1864 15.6912C36.8002 16.0763 36.5977 16.5988 36.3102 17.055C36.0689 17.51 35.6852 17.9538 35.7452 18.5025C35.8602 19.0025 36.2652 19.3738 36.4264 19.8563C36.1627 20.695 35.8202 21.5112 35.6414 22.3762C35.5414 22.7187 35.5427 23.1225 35.2914 23.4C34.8527 23.8813 34.3339 24.285 33.9102 24.7812C33.6802 25.0475 33.5964 25.4025 33.6002 25.7475C33.5989 26.2512 33.5839 26.755 33.6114 27.2575C33.6139 27.5887 33.9089 27.9225 34.2564 27.8775C34.6864 27.8413 35.1039 27.7275 35.5264 27.6525C35.7277 28.3725 36.0377 29.0588 36.4702 29.6712C36.2602 30.4125 35.9152 31.1162 35.7714 31.875C35.7039 32.4875 36.3839 32.6863 36.7964 32.95C37.1139 33.1775 37.5564 33.2875 37.8764 32.9975C38.4402 32.5013 38.8702 31.8725 39.3877 31.33C40.1352 31.3913 40.8864 31.3188 41.6102 31.1238C41.7902 31.5688 41.8814 32.0613 42.1489 32.4663C42.3939 32.7488 42.7814 32.63 43.0827 32.5262C43.0364 33.0937 43.2127 33.7337 42.8652 34.2337C42.7227 34.4675 42.4789 34.6037 42.2502 34.7375C37.0502 37.725 31.8702 40.745 26.6639 43.7212C26.6027 35.105 26.6077 26.4888 26.5677 17.8725C26.5289 17.3675 26.8202 16.8738 27.2727 16.6513Z" fill="#A9D284"></path><path d="M20.9488 14.8637C21.8726 15.395 22.7926 15.935 23.7138 16.4687C23.3351 17.3887 23.0438 18.365 23.0551 19.3687C23.0801 28.87 23.1101 38.37 23.1351 47.8712C23.1301 48.3012 23.1851 48.73 23.2613 49.1525C22.5801 48.7337 21.8676 48.3662 21.1951 47.9337C20.5576 47.4687 20.4601 46.6062 20.4676 45.8762C20.4438 36.46 20.4163 27.0437 20.3876 17.6275C20.3501 16.6762 20.5776 15.735 20.9488 14.8637Z" fill="#A9D284"></path><path d="M44.4201 16.08C45.0788 15.8437 45.8913 15.8312 46.4513 16.3062C47.1101 16.87 47.2713 17.7975 47.2576 18.6212C47.2076 20.245 46.5601 21.8025 45.6463 23.1262C44.8701 24.225 43.8626 25.2225 42.5913 25.7175C41.9138 25.9812 41.0613 26.0225 40.4763 25.5287C39.8538 25.0075 39.6726 24.1487 39.6638 23.375C39.6651 21.7112 40.3176 20.1062 41.2438 18.7462C42.0426 17.6062 43.0913 16.5675 44.4201 16.08Z" fill="#A9D284"></path><path d="M42.8675 4.47875C43.465 4.14 44.2325 3.90125 44.8825 4.23875C45.5487 4.60125 45.745 5.4275 45.75 6.13125C45.7612 7.62625 45.7575 9.12125 45.7662 10.6162C45.6512 10.6387 45.4225 10.6825 45.3087 10.705C45.1262 10.2587 45.045 9.76125 44.7762 9.3575C44.495 9.04375 44.07 9.20875 43.7537 9.36C43.755 8.78 43.7787 8.1975 43.7387 7.6175C43.72 7.22875 43.395 6.86125 42.9912 6.8675C42.5887 6.86625 42.2637 7.14 41.9237 7.31875C36.8837 10.2325 31.8412 13.1387 26.8 16.0512C26.1612 16.4087 25.7675 17.1437 25.8087 17.8737C25.84 26.4175 25.8612 34.9625 25.8925 43.5062C25.885 43.8612 26.0362 44.2625 26.3937 44.3963C26.8162 44.5662 27.2237 44.2825 27.5787 44.0838C32.6475 41.15 37.7225 38.225 42.795 35.2962C43.1062 35.12 43.3825 34.8725 43.5587 34.5575C44.0237 33.8025 43.77 32.8812 43.8387 32.0475C44.2462 31.8275 44.7025 31.5962 44.89 31.1437C45.1425 30.4937 45.225 29.7937 45.4362 29.1312C45.5075 28.935 45.68 28.8 45.8062 28.6412C45.8337 30.2625 45.82 31.885 45.83 33.5062C45.8225 34.5075 45.9125 35.5338 45.605 36.505C45.0725 38.2962 43.91 39.9637 42.24 40.8575C37.1175 43.815 31.995 46.775 26.8712 49.73C26.2425 50.095 25.425 50.3825 24.7375 50.005C24.0962 49.6287 23.9025 48.8275 23.8962 48.1338C23.8637 38.5888 23.845 29.045 23.8125 19.5012C23.7825 17.915 24.45 16.3887 25.39 15.14C25.8787 14.5062 26.4675 13.9412 27.165 13.5425C32.3987 10.52 37.6325 7.49875 42.8675 4.47875ZM37.1762 40.675C35.7675 41.4762 34.3737 42.3013 32.965 43.1012C32.7812 43.2038 32.5125 43.3638 32.5987 43.6175C32.635 43.8988 33.0062 44.0013 33.2137 43.8288C34.69 42.9775 36.18 42.1475 37.6375 41.2663C38.0825 40.995 37.5587 40.3312 37.1762 40.675Z" fill="white"></path><path d="M48.2875 10.8C48.6925 10.3337 49.0975 9.86499 49.4988 9.39499C49.8025 9.56249 50.1075 9.72874 50.4113 9.89749C50.2138 10.5675 49.9413 11.2125 49.7513 11.885C49.5513 12.5575 50.2275 13.0162 50.4013 13.6112C50.635 14.0475 50.5775 14.7337 51.125 14.9237C51.6125 14.9662 52.0888 14.7825 52.5675 14.72C52.5438 15.2812 52.6213 15.8512 52.5275 16.4062C52.0163 17.2625 50.8613 17.685 50.6663 18.7375C50.4938 19.5675 50.2688 20.3875 49.9575 21.1775C49.8363 21.515 49.6638 21.8812 49.7788 22.245C49.9463 22.6812 50.2675 23.0412 50.44 23.475C50.0975 24.2087 49.6838 24.9225 49.2213 25.5875C48.5988 25.735 47.8063 25.4025 47.3213 25.95C46.7975 26.5475 46.3063 27.1762 45.7213 27.7175C45.3938 28.0537 44.9688 28.32 44.765 28.7575C44.4888 29.4537 44.4525 30.225 44.1575 30.9137C43.7375 31.325 43.155 31.5262 42.6663 31.8475C42.4825 31.405 42.4038 30.905 42.1225 30.51C41.6925 30.135 41.1263 30.5337 40.64 30.5487C40.0475 30.7112 39.325 30.3587 38.835 30.8275C38.3338 31.3362 37.8925 31.9012 37.42 32.4362C37.1163 32.2675 36.81 32.1012 36.5088 31.9287C36.7025 31.3225 36.9263 30.725 37.1263 30.1212C37.2288 29.82 37.2613 29.465 37.0638 29.195C36.7738 28.7537 36.5088 28.2912 36.3613 27.7812C36.2475 27.4412 36.1738 26.985 35.7663 26.885C35.2888 26.8837 34.8263 27.0337 34.3588 27.1062C34.3863 26.5362 34.2925 25.95 34.4113 25.3887C34.95 24.5812 36.04 24.1437 36.2438 23.1237C36.4363 22.1287 36.7588 21.1662 37.1113 20.2187C37.3813 19.5187 36.75 18.9512 36.465 18.3737C36.715 17.805 37.0625 17.29 37.36 16.7475C37.4775 16.5637 37.565 16.345 37.7538 16.2212C38.2075 16.1662 38.6675 16.2387 39.12 16.17C39.4363 16.105 39.65 15.835 39.8488 15.6012C40.3975 14.9062 41.0088 14.26 41.6738 13.6737C42.5025 12.9912 42.3425 11.79 42.7738 10.8937C43.2088 10.5075 43.77 10.2925 44.2575 9.97749C44.42 10.405 44.515 10.8637 44.7463 11.26C44.9938 11.5825 45.4275 11.465 45.7625 11.3787C46.3325 11.2225 46.9275 11.2262 47.5138 11.255C47.8375 11.2662 48.0875 11.025 48.2875 10.8ZM44.6913 15.225C43.2813 15.5287 42.1125 16.49 41.2 17.5687C40.0188 19.005 39.1675 20.755 38.9438 22.6125C38.8225 23.74 38.9588 25.005 39.7475 25.8812C40.3863 26.6087 41.4513 26.815 42.3638 26.575C43.7863 26.2187 44.95 25.215 45.8538 24.0975C47.005 22.6375 47.8288 20.8712 47.9963 19.0062C48.08 17.9175 47.9038 16.7062 47.1163 15.89C46.505 15.2425 45.5425 15.0425 44.6913 15.225Z" fill="white"></path><path d="M4.94627 39.7C9.85377 36.8475 14.7613 33.995 19.6688 31.1425C19.685 36.1337 19.6938 41.125 19.7138 46.1162C19.71 47.0612 20.0238 48.1137 20.8738 48.6325C22.0213 49.3137 23.18 49.98 24.335 50.6487C25.2213 51.17 26.3263 50.9187 27.1688 50.4312C32.0325 47.63 36.8925 44.82 41.755 42.0137C42.5863 41.5287 43.465 41.0912 44.1475 40.3962C45.47 39.0837 46.3863 37.3237 46.57 35.46C46.62 34.4737 46.5763 33.485 46.5863 32.4987C50.7163 34.8787 54.845 37.2625 58.9725 39.6475C59.5725 39.99 60.2 40.505 60.2588 41.2437C60.3025 42.0412 59.64 42.6362 59.005 43C51.4938 47.3637 43.9838 51.73 36.4725 56.095C35.6463 56.5675 34.8388 57.1175 33.895 57.3262C32.1075 57.7487 30.1113 57.575 28.5375 56.5762C20.6713 52.0275 12.7975 47.4912 4.93252 42.9412C4.35877 42.605 3.78127 42.0812 3.74627 41.3725C3.72252 40.6162 4.34252 40.0487 4.94627 39.7Z" fill="white"></path><path d="M3.73629 42.9887C4.17129 43.3675 4.65754 43.6825 5.16254 43.9587C12.93 48.4437 20.7 52.9237 28.4663 57.4125C29.5338 58.025 30.7763 58.2737 31.9975 58.2912C33.3225 58.3 34.6788 58.0362 35.825 57.3475C43.1588 53.0925 50.4838 48.825 57.8163 44.5687C58.6413 44.0625 59.5338 43.6512 60.265 43.0062C60.2563 43.9237 60.28 44.8425 60.2563 45.76C60.2175 46.4637 59.6425 46.9837 59.0813 47.33C51.5475 51.715 44.0075 56.09 36.4725 60.4725C35.6525 60.9362 34.8588 61.4862 33.9263 61.7C32.2775 62.1012 30.4513 61.9962 28.9363 61.19C20.98 56.605 13.0325 52.0075 5.07629 47.4225C4.45379 47.0675 3.78629 46.5312 3.74004 45.7587C3.71754 44.835 3.74504 43.9112 3.73629 42.9887Z" fill="white"></path></svg>