<svg xmlns="http://www.w3.org/2000/svg" width="64" height="64" viewBox="0 0 64 64" fill="none"><path d="M31.5175 3.39625C32.44 3.145 33.4863 3.61875 33.8863 4.49C35.4363 7.65375 36.9725 10.8237 38.5188 13.9887C38.7313 14.42 38.8413 14.8987 38.8313 15.3787C38.8163 19.5662 38.8025 23.7537 38.7913 27.9413C45.0063 31.5213 51.2175 35.1112 57.4275 38.7C58.1775 39.125 58.89 39.8288 58.9375 40.7388C58.9613 41.9925 58.935 43.2463 58.9463 44.5C58.9388 44.9538 58.9713 45.4425 58.735 45.8525C58.4463 46.345 57.96 46.6725 57.505 46.9987C56.0625 47.9613 54.5263 48.7725 53.025 49.6375C47.6 52.6888 42.2063 55.795 36.8688 58.995C35.98 59.4975 35.1425 60.13 34.1388 60.39C32.57 60.8163 30.8513 60.7625 29.3363 60.1563C28.55 59.8113 27.8463 59.31 27.1 58.8913C21.645 55.6425 16.1288 52.4963 10.585 49.4012C9.13504 48.5737 7.64754 47.8013 6.27504 46.845C5.72629 46.4513 5.11504 45.9575 5.07254 45.2275C5.02879 44.1113 5.06754 42.9925 5.05879 41.8763C5.08379 41.2275 4.97754 40.5275 5.30129 39.9313C5.63629 39.2763 6.27379 38.86 6.89879 38.5125C13.0038 34.9688 19.1113 31.4263 25.2088 27.8688C25.2188 23.705 25.2363 19.54 25.2463 15.3763C25.2363 14.9137 25.3213 14.45 25.5263 14.0337C27.0713 10.8675 28.6138 7.7 30.1588 4.535C30.415 3.9775 30.9213 3.54625 31.5175 3.39625ZM31.68 4.08C31.265 4.18125 30.9388 4.5025 30.7688 4.8875C30.1825 6.09875 29.5863 7.305 29.0038 8.5175C28.8713 8.7575 29.0175 9.0275 29.1338 9.2425C29.4963 9.8025 30.1563 10.0587 30.7775 10.2125C31.8688 10.4512 33.0513 10.4012 34.08 9.94375C34.5963 9.71 35.1088 9.25125 35.115 8.645C34.5275 7.365 33.8875 6.1075 33.2763 4.83875C33.0188 4.24 32.3075 3.8975 31.68 4.08ZM26.14 14.39C25.8425 15.005 25.9075 15.765 26.3038 16.3213C26.9188 17.22 27.9438 17.7275 28.9438 18.0775C31.235 18.8162 33.8213 18.77 36.0225 17.7563C36.9088 17.315 37.8175 16.6462 38.0788 15.6388C38.2288 15.0737 38.0163 14.505 37.7488 14.0125C37.025 12.5262 36.2913 11.0437 35.5788 9.55125C34.8088 10.7112 33.3138 11.0737 32 11.0825C30.7063 11.075 29.2338 10.7012 28.4975 9.545C27.7138 11.1612 26.9188 12.7725 26.14 14.39ZM25.9438 17.025C25.9275 24.8088 25.8913 32.5938 25.875 40.3787C25.8538 41.1 26.2688 41.7525 26.7975 42.2113C28.0925 43.3188 29.84 43.7025 31.5 43.8088C31.5013 35.6287 31.5025 27.4475 31.5 19.2675C29.495 19.1225 27.3275 18.5875 25.9438 17.025ZM32.2063 19.2763C32.2038 27.4588 32.205 35.6413 32.205 43.8237C33.71 43.7575 35.2413 43.4388 36.5513 42.6675C37.325 42.21 38.0425 41.445 38.0438 40.4925C38.0788 32.6838 38.09 24.875 38.125 17.0662C36.6313 18.69 34.3363 19.23 32.2063 19.2763ZM6.85004 39.3575C6.30504 39.6787 5.75504 40.1987 5.76879 40.8812C5.79504 41.5525 6.34754 42.045 6.89004 42.36C13.885 46.4025 20.885 50.4375 27.88 54.4813C28.7063 54.9463 29.5038 55.5088 30.4488 55.7063C32.07 56.0638 33.8713 55.935 35.3075 55.0488C42.5563 50.84 49.8 46.625 57.0475 42.415C57.5813 42.105 58.13 41.6562 58.2263 41.0088C58.3113 40.4113 57.905 39.8813 57.4463 39.5525C56.9675 39.22 56.4475 38.955 55.9475 38.6575C50.23 35.3538 44.51 32.0513 38.79 28.75C38.7813 31.3938 38.7625 34.0387 38.77 36.6825C40.1163 37.375 41.29 38.5662 41.6588 40.0675C41.9625 41.3038 41.5013 42.6188 40.6625 43.5425C39.5438 44.7962 37.98 45.5613 36.3938 46.0438C33.5425 46.8688 30.4563 46.8263 27.6075 46.0088C25.9388 45.5025 24.2638 44.7088 23.15 43.32C22.315 42.2975 21.9963 40.84 22.4688 39.5887C22.9375 38.305 24.0213 37.36 25.1775 36.6912C25.1913 34.0238 25.195 31.3563 25.205 28.6888C19.09 32.2513 12.9675 35.8 6.85004 39.3575ZM38.7613 37.5025C38.7538 38.5012 38.76 39.5013 38.7488 40.5C38.7588 41.5375 38.1063 42.4563 37.28 43.0288C35.6738 44.1313 33.6713 44.5075 31.7513 44.525C30.08 44.455 28.355 44.1162 26.9313 43.1937C26.0325 42.6125 25.2338 41.6987 25.1788 40.5825C25.1563 39.5613 25.1825 38.54 25.1775 37.5187C24.33 38.0837 23.53 38.8088 23.1563 39.7788C22.7925 40.6788 22.94 41.7362 23.4663 42.5412C24.2513 43.755 25.5663 44.5025 26.8813 45.0163C29.4525 45.9788 32.295 46.1725 34.9875 45.6688C36.7875 45.3038 38.5975 44.6075 39.925 43.2975C40.7225 42.52 41.2525 41.3613 40.9738 40.24C40.7013 39.0425 39.7538 38.1488 38.7613 37.5025ZM5.75754 42.3925C5.77254 43.265 5.74379 44.1375 5.76504 45.01C5.77254 45.665 6.39254 46.0438 6.86129 46.39C8.67129 47.5713 10.59 48.5725 12.4613 49.6525C17.8613 52.6975 23.2313 55.7938 28.57 58.945C30.5988 60.3075 33.4475 60.325 35.4988 59.0013C42.6625 54.8325 49.8325 50.6763 56.9963 46.5075C57.5625 46.1825 58.16 45.7025 58.23 45.0062C58.2575 44.1387 58.2275 43.27 58.2425 42.4025C57.95 42.6475 57.6463 42.8812 57.3163 43.0725C50.0988 47.2675 42.8825 51.4663 35.6625 55.6588C34.0238 56.6663 31.9613 56.8138 30.1225 56.35C29.33 56.1613 28.6263 55.7375 27.9325 55.3275C21.2213 51.4463 14.505 47.5763 7.79129 43.7C7.09754 43.2913 6.36754 42.9275 5.75754 42.3925Z" fill="#403D39"></path><path d="M31.6799 4.08001C32.3074 3.89751 33.0187 4.24001 33.2762 4.83876C33.8874 6.10751 34.5274 7.36501 35.1149 8.64501C35.1087 9.25126 34.5962 9.71001 34.0799 9.94376C33.0512 10.4013 31.8687 10.4513 30.7774 10.2125C30.1562 10.0588 29.4962 9.80251 29.1337 9.24251C29.0174 9.02751 28.8712 8.75751 29.0037 8.51751C29.5862 7.30501 30.1824 6.09876 30.7687 4.88751C30.9387 4.50251 31.2649 4.18126 31.6799 4.08001Z" fill="#A9D284"></path><path d="M25.9438 17.025C27.3275 18.5875 29.495 19.1225 31.5 19.2675C31.5025 27.4475 31.5013 35.6287 31.5 43.8087C29.84 43.7025 28.0925 43.3187 26.7975 42.2112C26.2688 41.7525 25.8538 41.1 25.875 40.3787C25.8913 32.5937 25.9275 24.8087 25.9438 17.025Z" fill="#A9D284"></path><path d="M32.2064 19.2763C34.3364 19.23 36.6314 18.69 38.1251 17.0663C38.0901 24.875 38.0789 32.6838 38.0439 40.4925C38.0426 41.445 37.3251 42.21 36.5514 42.6675C35.2414 43.4388 33.7101 43.7575 32.2051 43.8238C32.2051 35.6413 32.2039 27.4588 32.2064 19.2763Z" fill="#A9D284"></path><path d="M26.1399 14.39C26.9187 12.7725 27.7137 11.1613 28.4974 9.54501C29.2337 10.7013 30.7062 11.075 31.9999 11.0825C33.3137 11.0738 34.8087 10.7113 35.5787 9.55126C36.2912 11.0438 37.0249 12.5263 37.7487 14.0125C38.0162 14.505 38.2287 15.0738 38.0787 15.6388C37.8174 16.6463 36.9087 17.315 36.0224 17.7563C33.8212 18.77 31.2349 18.8163 28.9437 18.0775C27.9437 17.7275 26.9187 17.22 26.3037 16.3213C25.9074 15.765 25.8424 15.005 26.1399 14.39Z" fill="white"></path><path d="M6.85006 39.3575C12.9676 35.8 19.0901 32.2513 25.2051 28.6888C25.1951 31.3563 25.1913 34.0238 25.1776 36.6913C24.0213 37.36 22.9376 38.305 22.4688 39.5888C21.9963 40.84 22.3151 42.2975 23.1501 43.32C24.2638 44.7088 25.9388 45.5025 27.6076 46.0088C30.4563 46.8263 33.5426 46.8688 36.3938 46.0438C37.9801 45.5613 39.5438 44.7963 40.6626 43.5425C41.5013 42.6188 41.9626 41.3038 41.6588 40.0675C41.2901 38.5663 40.1163 37.375 38.7701 36.6825C38.7626 34.0388 38.7813 31.3938 38.7901 28.75C44.5101 32.0513 50.2301 35.3538 55.9476 38.6575C56.4476 38.955 56.9676 39.22 57.4463 39.5525C57.9051 39.8813 58.3113 40.4113 58.2263 41.0088C58.1301 41.6563 57.5813 42.105 57.0476 42.415C49.8001 46.625 42.5563 50.84 35.3076 55.0488C33.8713 55.935 32.0701 56.0638 30.4488 55.7063C29.5038 55.5088 28.7063 54.9463 27.8801 54.4813C20.8851 50.4375 13.8851 46.4025 6.89006 42.36C6.34756 42.045 5.79506 41.5525 5.76881 40.8813C5.75506 40.1988 6.30506 39.6788 6.85006 39.3575Z" fill="white"></path><path d="M38.7613 37.5025C39.7538 38.1488 40.7013 39.0425 40.9738 40.24C41.2526 41.3613 40.7226 42.52 39.9251 43.2975C38.5976 44.6075 36.7876 45.3038 34.9876 45.6688C32.2951 46.1725 29.4526 45.9788 26.8813 45.0163C25.5663 44.5025 24.2513 43.755 23.4663 42.5413C22.9401 41.7363 22.7926 40.6788 23.1563 39.7788C23.5301 38.8088 24.3301 38.0838 25.1776 37.5188C25.1826 38.54 25.1563 39.5613 25.1788 40.5825C25.2338 41.6988 26.0326 42.6125 26.9313 43.1938C28.3551 44.1163 30.0801 44.455 31.7513 44.525C33.6713 44.5075 35.6738 44.1313 37.2801 43.0288C38.1063 42.4563 38.7588 41.5375 38.7488 40.5C38.7601 39.5013 38.7538 38.5013 38.7613 37.5025Z" fill="white"></path><path d="M5.7575 42.3925C6.3675 42.9275 7.0975 43.2913 7.79125 43.7C14.505 47.5763 21.2212 51.4463 27.9325 55.3275C28.6262 55.7375 29.33 56.1613 30.1225 56.35C31.9612 56.8138 34.0237 56.6663 35.6625 55.6588C42.8825 51.4663 50.0987 47.2675 57.3162 43.0725C57.6462 42.8813 57.95 42.6475 58.2425 42.4025C58.2275 43.27 58.2575 44.1388 58.23 45.0063C58.16 45.7025 57.5625 46.1825 56.9962 46.5075C49.8325 50.6763 42.6625 54.8325 35.4987 59.0013C33.4475 60.325 30.5987 60.3075 28.57 58.945C23.2312 55.7938 17.8612 52.6975 12.4612 49.6525C10.59 48.5725 8.67124 47.5713 6.86125 46.39C6.3925 46.0438 5.7725 45.665 5.765 45.01C5.74375 44.1375 5.7725 43.265 5.7575 42.3925Z" fill="white"></path></svg>