<svg xmlns="http://www.w3.org/2000/svg" width="64" height="64" viewBox="0 0 64 64" fill="none"><path d="M31.3425 6.08748C34.0337 4.32623 37.1162 2.95998 40.3762 2.88373C41.925 2.85998 43.495 3.16373 44.8775 3.87623C45.585 4.23998 46.2575 4.66498 46.9487 5.05623C48.0812 5.72873 49.285 6.32623 50.2212 7.27373C52.1587 9.15748 53.1512 11.8062 53.5312 14.4387C54.0925 18.4062 53.4787 22.4562 52.3037 26.26C51.52 28.7837 50.4625 31.2175 49.2112 33.5437C51.7187 34.9975 54.23 36.4437 56.7412 37.8937C57.38 38.2875 58.08 38.5962 58.6437 39.1012C59.1412 39.5475 59.505 40.1825 59.495 40.865C59.4975 42.2437 59.5037 43.6237 59.4925 45.0025C59.4825 46.005 58.7237 46.8062 57.8975 47.2725C50.8912 51.3512 43.8787 55.42 36.8687 59.4937C35.9787 59.9887 35.13 60.5975 34.1275 60.8487C32.28 61.335 30.2125 61.1862 28.5387 60.2237C21.0637 55.9037 13.585 51.5925 6.10996 47.2762C5.28246 46.8112 4.51371 46.0137 4.50496 45.0112C4.49621 43.63 4.50621 42.2487 4.50996 40.8687C4.50371 39.8987 5.21121 39.0987 6.00371 38.63C9.09121 36.8262 12.1862 35.0325 15.2812 33.2375C15.7812 27.8612 17.7187 22.695 20.4275 18.0525C23.1912 13.38 26.8 9.11373 31.3425 6.08748ZM33.8125 5.72748C34.5225 6.17873 35.265 6.57623 35.9862 7.00873C38.57 5.57623 41.49 4.55123 44.4812 4.73248C43.3262 4.15623 42.04 3.85498 40.75 3.84123C38.3137 3.79623 35.9487 4.61123 33.8125 5.72748ZM36.4625 7.84623C36.48 13.76 36.495 19.6725 36.5137 25.585C40.1812 19.2362 43.845 12.8862 47.5087 6.53498C46.495 6.02123 45.3725 5.75123 44.2375 5.70498C41.4912 5.53998 38.8275 6.52998 36.4625 7.84623ZM23.3112 15.3037C20.2075 19.6787 17.9175 24.6537 16.7712 29.9012C16.065 33.3012 15.795 36.8875 16.7187 40.2737C17.3212 42.5025 18.6012 44.6175 20.565 45.8912C19.0562 43.5987 18.4237 40.8337 18.3412 38.1175C18.215 33.5275 19.3975 28.9937 21.1612 24.7862C23.1212 20.1975 25.8475 15.9175 29.2975 12.3025C31.0137 10.4987 32.9512 8.91498 35.0312 7.54748C34.2987 7.13123 33.5687 6.70998 32.845 6.27748C29.0412 8.52373 25.8725 11.7287 23.3112 15.3037ZM37.3475 26.0537C42.4912 23.0762 47.6425 20.1125 52.7875 17.135C52.7462 15.1825 52.4762 13.2112 51.76 11.3837C51.085 9.63248 49.9375 8.02748 48.3525 6.99123C44.6837 13.345 41.0175 19.7 37.3475 26.0537ZM27.7875 15.6712C24.7275 19.63 22.31 24.0937 20.725 28.8412C19.605 32.3 18.8675 35.9587 19.2225 39.6062C19.445 41.8537 20.16 44.1162 21.6212 45.8725C23.0975 47.665 25.3 48.8737 27.6312 49.0162C30.6637 49.2262 33.6125 48.0825 36.1762 46.5512C39.615 44.48 42.5212 41.6162 44.95 38.44C46.8887 35.8937 48.5262 33.12 49.8262 30.1962C51.4912 26.43 52.6225 22.3837 52.7787 18.2525C47.2975 21.405 41.8275 24.5775 36.3475 27.7312C36.0525 27.9712 35.5575 27.7525 35.57 27.365C35.5387 21.0525 35.5325 14.7387 35.51 8.42623C32.4987 10.3175 29.9775 12.8912 27.7875 15.6712ZM6.46121 39.4637C5.89496 39.7987 5.31496 40.4075 5.50246 41.1225C5.71746 41.89 6.49621 42.25 7.12871 42.62C14.4475 46.8387 21.7575 51.0725 29.0775 55.29C29.9562 55.8137 30.995 56.0025 32.0075 56.0175C33.0837 56.0162 34.1925 55.8275 35.1312 55.275C42.5662 50.9587 49.995 46.6337 57.4287 42.3175C57.9575 42.0062 58.5175 41.5362 58.5412 40.8737C58.5437 40.2062 57.9875 39.7187 57.455 39.41C54.5575 37.7325 51.6562 36.06 48.7562 34.3875C45.9925 39.1637 42.3725 43.5412 37.7812 46.6587C35.3075 48.3212 32.5037 49.6212 29.5137 49.9387C27.485 50.1562 25.3662 49.8025 23.5937 48.7675C22.2075 47.965 20.7687 47.2287 19.5125 46.225C18.2862 45.2775 17.2725 44.0537 16.59 42.6612C15.3362 40.1 15.1187 37.1762 15.2275 34.3675C12.3062 36.0675 9.38121 37.7612 6.46121 39.4637ZM5.45871 42.6825C5.46121 43.4537 5.44496 44.2237 5.45871 44.995C5.48621 45.6862 6.08621 46.165 6.63871 46.4837C13.7475 50.5812 20.8525 54.6862 27.96 58.7862C28.74 59.225 29.4912 59.7512 30.3762 59.955C31.9887 60.3487 33.7887 60.215 35.2312 59.3462C42.6312 55.0412 50.0375 50.745 57.4362 46.4387C57.96 46.1275 58.5087 45.6575 58.5375 45.0025C58.5562 44.2362 58.5362 43.4687 58.545 42.7012C57.5675 43.4087 56.4762 43.94 55.45 44.57C48.8312 48.41 42.2212 52.265 35.6012 56.1025C34.6275 56.6712 33.4987 56.9225 32.38 56.9675C31.1262 56.9987 29.815 56.8137 28.73 56.1462C24.8137 53.9525 20.94 51.6837 17.0425 49.4575C13.1812 47.1987 9.28621 45 5.45871 42.6825Z" fill="#403D39"></path><path d="M33.8125 5.7275C35.9488 4.61125 38.3138 3.79625 40.75 3.84125C42.04 3.855 43.3263 4.15625 44.4813 4.7325C41.49 4.55125 38.57 5.57625 35.9863 7.00875C35.265 6.57625 34.5225 6.17875 33.8125 5.7275Z" fill="#FCFDFF"></path><path d="M36.4624 7.84625C38.8274 6.53 41.4911 5.54 44.2374 5.705C45.3724 5.75125 46.4949 6.02125 47.5087 6.535C43.8449 12.8863 40.1811 19.2363 36.5136 25.585C36.4949 19.6725 36.4799 13.76 36.4624 7.84625Z" fill="#FCFDFF"></path><path d="M37.3474 26.0537C41.0174 19.7 44.6837 13.345 48.3524 6.99124C49.9374 8.02749 51.0849 9.63249 51.7599 11.3837C52.4762 13.2112 52.7462 15.1825 52.7874 17.135C47.6424 20.1125 42.4912 23.0762 37.3474 26.0537Z" fill="#FCFDFF"></path><path d="M6.46123 39.4637C9.38123 37.7612 12.3062 36.0675 15.2275 34.3675C15.1187 37.1762 15.3362 40.1 16.59 42.6612C17.2725 44.0537 18.2862 45.2775 19.5125 46.225C20.7687 47.2287 22.2075 47.965 23.5937 48.7675C25.3662 49.8025 27.485 50.1562 29.5137 49.9387C32.5037 49.6212 35.3075 48.3212 37.7812 46.6587C42.3725 43.5412 45.9925 39.1637 48.7562 34.3875C51.6562 36.06 54.5575 37.7325 57.455 39.41C57.9875 39.7187 58.5437 40.2062 58.5412 40.8737C58.5175 41.5362 57.9575 42.0062 57.4287 42.3175C49.995 46.6337 42.5662 50.9587 35.1312 55.275C34.1925 55.8275 33.0837 56.0162 32.0075 56.0175C30.995 56.0025 29.9562 55.8137 29.0775 55.29C21.7575 51.0725 14.4475 46.8387 7.12873 42.62C6.49623 42.25 5.71748 41.89 5.50248 41.1225C5.31498 40.4075 5.89498 39.7987 6.46123 39.4637Z" fill="#FCFDFF"></path><path d="M5.45872 42.6825C9.28622 45 13.1812 47.1987 17.0425 49.4575C20.94 51.6837 24.8137 53.9525 28.73 56.1462C29.815 56.8137 31.1262 56.9987 32.38 56.9675C33.4987 56.9225 34.6275 56.6712 35.6012 56.1025C42.2212 52.265 48.8312 48.41 55.45 44.57C56.4762 43.94 57.5675 43.4087 58.545 42.7012C58.5362 43.4687 58.5562 44.2362 58.5375 45.0025C58.5087 45.6575 57.96 46.1275 57.4362 46.4387C50.0375 50.745 42.6312 55.0412 35.2312 59.3462C33.7887 60.215 31.9887 60.3487 30.3762 59.955C29.4912 59.7512 28.74 59.225 27.96 58.7862C20.8525 54.6862 13.7475 50.5812 6.63872 46.4837C6.08622 46.165 5.48622 45.6862 5.45872 44.995C5.44497 44.2237 5.46122 43.4537 5.45872 42.6825Z" fill="#FCFDFF"></path><path d="M23.3113 15.3037C25.8726 11.7287 29.0413 8.52375 32.8451 6.2775C33.5688 6.71 34.2988 7.13125 35.0313 7.5475C32.9513 8.915 31.0138 10.4987 29.2976 12.3025C25.8476 15.9175 23.1213 20.1975 21.1613 24.7862C19.3976 28.9937 18.2151 33.5275 18.3413 38.1175C18.4238 40.8338 19.0563 43.5988 20.5651 45.8913C18.6013 44.6175 17.3213 42.5025 16.7188 40.2738C15.7951 36.8875 16.0651 33.3013 16.7713 29.9012C17.9176 24.6537 20.2076 19.6787 23.3113 15.3037Z" fill="#A9D284"></path><path d="M27.7876 15.6712C29.9776 12.8912 32.4989 10.3175 35.5101 8.42624C35.5326 14.7387 35.5389 21.0525 35.5701 27.365C35.5576 27.7525 36.0526 27.9712 36.3476 27.7312C41.8276 24.5775 47.2976 21.405 52.7789 18.2525C52.6226 22.3837 51.4914 26.43 49.8264 30.1962C48.5264 33.12 46.8889 35.8937 44.9501 38.44C42.5214 41.6162 39.6151 44.48 36.1764 46.5512C33.6126 48.0825 30.6639 49.2262 27.6314 49.0162C25.3001 48.8737 23.0976 47.665 21.6214 45.8725C20.1601 44.1162 19.4451 41.8537 19.2226 39.6062C18.8676 35.9587 19.6051 32.3 20.7251 28.8412C22.3101 24.0937 24.7276 19.63 27.7876 15.6712Z" fill="#A9D284"></path></svg>