<svg xmlns="http://www.w3.org/2000/svg" width="65" height="64" viewBox="0 0 65 64" fill="none"><path d="M46.8775 1.11125C47.5337 0.876247 48.3 0.689997 48.9462 1.055C50.1875 1.76375 51.4187 2.49125 52.6487 3.22C53.4675 3.705 53.67 4.755 53.605 5.635C53.1662 14.81 51.1025 23.9025 47.5787 32.3838C51.68 34.7488 55.78 37.1163 59.8787 39.485C60.7087 39.955 61.5 40.7412 61.5187 41.7562C61.525 43.255 61.5312 44.7537 61.515 46.2525C61.4875 47.225 60.7537 47.9988 59.9575 48.465C52.505 52.8075 45.0425 57.1338 37.5862 61.47C36.6287 62.0013 35.7137 62.6613 34.6262 62.9025C32.7225 63.3638 30.6062 63.2175 28.8862 62.2313C20.965 57.6525 13.04 53.0838 5.11749 48.5088C4.28874 48.04 3.50249 47.2538 3.47999 46.2438C3.46874 44.7475 3.47499 43.25 3.48749 41.7537C3.52374 40.5338 4.59874 39.7275 5.58874 39.2175C8.47749 37.5425 11.3612 35.8575 14.2525 34.1875C13.5475 31.3837 13.1062 28.5163 12.905 25.6338C12.8537 24.79 12.74 23.9275 12.9587 23.0963C13.32 21.6663 14.1362 20.3412 15.2912 19.4175C20.4575 15.12 24.9887 10.0825 28.845 4.58625C29.4125 3.75875 29.9862 2.90375 30.8162 2.315C31.5012 1.78875 32.4162 1.4525 33.2712 1.7425C37.725 3.05375 42.5125 2.49375 46.8775 1.11125ZM46.99 1.87C42.7812 3.185 38.2162 3.74875 33.8875 2.69375C33.3375 2.565 32.795 2.32375 32.2175 2.42125C33.1275 2.9925 34.07 3.51 34.995 4.05625C35.5862 3.78625 36.2675 3.64125 36.9012 3.85375C41.5012 5.205 46.4387 4.55375 50.925 3.08125C50.16 2.63875 49.4025 2.1825 48.6325 1.74875C48.1087 1.44625 47.5125 1.71125 46.99 1.87ZM29.9 4.40125C25.8875 10.225 21.135 15.555 15.6887 20.075C14.325 21.2375 13.3937 23.0513 13.62 24.8725C13.7525 27.0913 14.0162 29.305 14.4412 31.4888C15.2187 35.3763 16.4762 39.24 18.6925 42.5575C19.7912 44.18 21.1575 45.6562 22.845 46.675C21.505 45.0875 20.4462 43.28 19.6125 41.3812C17.6437 36.8475 16.7787 31.91 16.4687 27C16.2362 24.88 17.34 22.7738 18.97 21.4675C24.315 17.0138 28.9725 11.7637 32.9137 6.03875C33.2975 5.4725 33.755 4.96 34.2762 4.5175C33.3112 3.955 32.3462 3.39375 31.3825 2.82875C30.7875 3.2475 30.3012 3.7975 29.9 4.40125ZM51.2737 3.77625C46.8975 5.18625 42.1487 5.87125 37.615 4.825C36.9787 4.71125 36.3375 4.33875 35.6875 4.58625C34.7625 4.94 34.065 5.70125 33.5162 6.5C29.5387 12.275 24.8337 17.5688 19.4425 22.0613C18.2062 23.0525 17.3275 24.5413 17.2012 26.1325C17.225 27.4688 17.3625 28.8013 17.51 30.1288C18.0925 34.805 19.2562 39.4987 21.6425 43.6012C23.0175 45.94 24.8912 48.1088 27.3962 49.2625C29.1875 50.1088 31.27 50.27 33.1837 49.7763C33.9187 49.5737 34.6862 49.3788 35.3012 48.9063C37.22 47.4288 38.8625 45.6225 40.3212 43.6975C42.525 40.77 44.3237 37.555 45.8637 34.2363C47.4962 30.7 48.825 27.0263 49.8962 23.2838C51.5075 17.615 52.5375 11.7712 52.8325 5.8825C52.86 5.285 52.9112 4.6125 52.5337 4.105C52.2487 3.7175 51.71 3.655 51.2737 3.77625ZM47.28 33.0875C45.6525 36.805 43.725 40.4087 41.315 43.6825C39.73 45.82 37.935 47.8275 35.825 49.4613C35.0212 50.1025 33.9975 50.36 33.015 50.5888C30.78 51.0888 28.3837 50.7025 26.38 49.6088C25.1112 48.8813 23.8512 48.1388 22.5887 47.4012C20.5525 46.215 18.9375 44.4175 17.6862 42.4412C16.225 40.1287 15.2137 37.56 14.47 34.935C11.455 36.685 8.44249 38.4363 5.42874 40.1888C4.85874 40.5238 4.27999 41.0438 4.24624 41.75C4.22124 42.5075 4.83999 43.0788 5.44624 43.4287C13.4212 48.0413 21.4037 52.6413 29.3812 57.2513C30.8862 58.075 32.7125 58.1788 34.365 57.8088C35.3475 57.6013 36.1825 57.0238 37.0412 56.5338C44.5275 52.185 52.01 47.8312 59.4962 43.4825C60.095 43.1375 60.7125 42.61 60.76 41.8713C60.7925 41.11 60.17 40.5325 59.5637 40.1813C55.4712 37.8125 51.3762 35.4488 47.28 33.0875ZM4.23624 43.4663C4.24499 44.3963 4.21624 45.3275 4.24124 46.2575C4.29874 47.0275 4.96874 47.5538 5.58999 47.91C13.5487 52.495 21.5 57.095 29.4587 61.68C31.5625 62.75 34.2562 62.6525 36.25 61.37C44.0237 56.8475 51.805 52.3363 59.5762 47.81C60.1762 47.4525 60.7725 46.8775 60.7625 46.1287C60.7712 45.2463 60.76 44.3638 60.765 43.4825C60.4387 43.7575 60.0987 44.0175 59.7262 44.23C51.8925 48.7713 44.0712 53.335 36.2375 57.8763C35.2225 58.4713 34.0387 58.7213 32.8725 58.765C31.53 58.805 30.1487 58.5638 28.9712 57.8938C21.08 53.33 13.18 48.7825 5.28874 44.22C4.91249 44.005 4.56499 43.745 4.23624 43.4663Z" fill="#403D39"></path><path d="M46.99 1.87001C47.5125 1.71126 48.1088 1.44626 48.6325 1.74876C49.4025 2.18251 50.16 2.63876 50.925 3.08126C46.4388 4.55376 41.5013 5.20501 36.9013 3.85376C36.2675 3.64126 35.5863 3.78626 34.995 4.05626C34.07 3.51001 33.1275 2.99251 32.2175 2.42126C32.795 2.32376 33.3375 2.56501 33.8875 2.69376C38.2163 3.74876 42.7813 3.18501 46.99 1.87001Z" fill="#A9D284"></path><path d="M29.9001 4.40127C30.3013 3.79752 30.7876 3.24752 31.3826 2.82877C32.3463 3.39377 33.3113 3.95502 34.2763 4.51752C33.7551 4.96002 33.2976 5.47252 32.9138 6.03877C28.9726 11.7638 24.3151 17.0138 18.9701 21.4675C17.3401 22.7738 16.2363 24.88 16.4688 27C16.7788 31.91 17.6438 36.8475 19.6126 41.3813C20.4463 43.28 21.5051 45.0875 22.8451 46.675C21.1576 45.6563 19.7913 44.18 18.6926 42.5575C16.4763 39.24 15.2188 35.3763 14.4413 31.4888C14.0163 29.305 13.7526 27.0913 13.6201 24.8725C13.3938 23.0513 14.3251 21.2375 15.6888 20.075C21.1351 15.555 25.8876 10.225 29.9001 4.40127Z" fill="#A9D284"></path><path d="M51.2737 3.77626C51.7099 3.65501 52.2487 3.71751 52.5337 4.10501C52.9112 4.61251 52.8599 5.28501 52.8324 5.88251C52.5374 11.7713 51.5074 17.615 49.8962 23.2838C48.8249 27.0263 47.4962 30.7 45.8637 34.2363C44.3237 37.555 42.5249 40.77 40.3212 43.6975C38.8624 45.6225 37.2199 47.4288 35.3012 48.9063C34.6862 49.3788 33.9187 49.5738 33.1837 49.7763C31.2699 50.27 29.1874 50.1088 27.3962 49.2625C24.8912 48.1088 23.0174 45.94 21.6424 43.6013C19.2562 39.4988 18.0924 34.805 17.5099 30.1288C17.3624 28.8013 17.2249 27.4688 17.2012 26.1325C17.3274 24.5413 18.2062 23.0525 19.4424 22.0613C24.8337 17.5688 29.5387 12.275 33.5162 6.50001C34.0649 5.70126 34.7624 4.94001 35.6874 4.58626C36.3374 4.33876 36.9787 4.71126 37.6149 4.82501C42.1487 5.87126 46.8974 5.18626 51.2737 3.77626Z" fill="white"></path><path d="M47.2798 33.0875C51.3761 35.4488 55.4711 37.8125 59.5636 40.1813C60.1698 40.5325 60.7923 41.11 60.7598 41.8713C60.7123 42.61 60.0948 43.1375 59.4961 43.4825C52.0098 47.8313 44.5273 52.185 37.0411 56.5338C36.1823 57.0238 35.3473 57.6013 34.3648 57.8088C32.7123 58.1788 30.8861 58.075 29.3811 57.2513C21.4036 52.6413 13.4211 48.0413 5.44609 43.4288C4.83984 43.0788 4.22109 42.5075 4.24609 41.75C4.27984 41.0438 4.85859 40.5238 5.42859 40.1888C8.44234 38.4363 11.4548 36.685 14.4698 34.935C15.2136 37.56 16.2248 40.1288 17.6861 42.4413C18.9373 44.4175 20.5523 46.215 22.5886 47.4013C23.8511 48.1388 25.1111 48.8813 26.3798 49.6088C28.3836 50.7025 30.7798 51.0888 33.0148 50.5888C33.9973 50.36 35.0211 50.1025 35.8248 49.4613C37.9348 47.8275 39.7298 45.82 41.3148 43.6825C43.7248 40.4088 45.6523 36.805 47.2798 33.0875Z" fill="white"></path><path d="M4.23619 43.4662C4.56494 43.745 4.91244 44.005 5.28869 44.22C13.1799 48.7825 21.0799 53.33 28.9712 57.8937C30.1487 58.5637 31.5299 58.805 32.8724 58.765C34.0387 58.7212 35.2224 58.4712 36.2374 57.8762C44.0712 53.335 51.8924 48.7712 59.7262 44.23C60.0987 44.0175 60.4387 43.7575 60.7649 43.4825C60.7599 44.3637 60.7712 45.2462 60.7625 46.1287C60.7724 46.8775 60.1762 47.4525 59.5762 47.81C51.8049 52.3362 44.0237 56.8475 36.2499 61.37C34.2562 62.6525 31.5624 62.75 29.4587 61.68C21.4999 57.095 13.5487 52.495 5.58994 47.91C4.96869 47.5537 4.29869 47.0275 4.24119 46.2575C4.21619 45.3275 4.24494 44.3962 4.23619 43.4662Z" fill="white"></path></svg>