<svg xmlns="http://www.w3.org/2000/svg" width="64" height="64" viewBox="0 0 64 64" fill="none"><path d="M42.5501 4.43001C43.2388 4.04251 43.9263 3.55251 44.7451 3.51876C45.1938 3.48001 45.6276 3.64126 46.0063 3.87126C46.9288 4.41501 47.8676 4.93376 48.7863 5.48501C49.5538 5.94501 49.8351 6.89626 49.8288 7.74376C49.8538 15.6638 49.8763 23.5825 49.8963 31.5025C49.9051 32.32 49.6926 33.1188 49.3876 33.8713C51.7301 35.2313 54.0776 36.5813 56.4238 37.935C57.1663 38.385 58.0138 38.7438 58.5351 39.4713C58.8388 39.87 58.9688 40.375 58.9488 40.8725C58.9401 42.1663 58.9526 43.4613 58.9388 44.7563C58.9276 45.7125 58.1863 46.4613 57.4013 46.9025C50.4751 50.9338 43.5438 54.9563 36.6151 58.9838C35.8476 59.4075 35.1213 59.9288 34.2688 60.17C32.8626 60.5875 31.3326 60.5875 29.9238 60.1825C29.2626 59.995 28.6638 59.6488 28.0776 59.3C20.9201 55.1663 13.7601 51.035 6.60008 46.9038C5.81383 46.4625 5.06508 45.715 5.05758 44.7575C5.05008 43.3963 5.05758 42.0363 5.06383 40.675C5.05883 39.7713 5.71633 39.0275 6.45883 38.5938C10.7188 36.1038 14.9926 33.6375 19.2551 31.15C19.2438 28.0163 19.2376 24.8838 19.2238 21.7513C19.1838 20.2363 19.8076 18.7738 20.7088 17.5813C21.1788 16.9713 21.7476 16.4275 22.4226 16.0475C29.1326 12.1775 35.8413 8.30376 42.5501 4.43001ZM43.1476 4.90001C36.3301 8.83251 29.5151 12.77 22.6963 16.7025C22.1351 17.0338 21.6588 17.495 21.2626 18.0113C20.4601 19.0813 19.8901 20.39 19.9288 21.7475C19.9326 22.9038 19.9376 24.0588 19.9376 25.215C20.6988 25.655 21.4601 26.095 22.2201 26.535C22.2176 25.4413 22.2063 24.3475 22.2076 23.2525C22.2101 22.535 22.3851 21.8288 22.6501 21.165C23.2188 19.7813 24.1463 18.4825 25.4663 17.7325C32.0751 13.9238 38.6813 10.1088 45.2876 6.29501C45.8901 5.95001 46.4776 5.56626 47.1401 5.34001C46.5026 4.99251 45.9001 4.57876 45.2388 4.28001C44.4788 4.05376 43.7738 4.53501 43.1476 4.90001ZM46.2026 6.58376C39.3888 10.5213 32.5726 14.4563 25.7563 18.3888C25.2151 18.7013 24.7426 19.1238 24.3513 19.6113C23.4838 20.71 22.8713 22.0813 22.9151 23.5025C22.9201 24.5113 22.9213 25.52 22.9263 26.5288C31.6651 21.4863 40.4026 16.4438 49.1376 11.395C49.1263 10.0925 49.1438 8.79001 49.1163 7.48876C49.0938 6.89626 48.8401 6.19376 48.2176 6.00751C47.4901 5.80126 46.8051 6.23251 46.2026 6.58376ZM22.9288 27.34C22.9463 33.9325 22.9663 40.5238 22.9863 47.1163C22.9951 47.7 23.1401 48.3788 23.6626 48.7213C24.2163 49.045 24.8976 48.8238 25.4151 48.5288C32.1751 44.6325 38.9288 40.7275 45.6876 36.8288C46.2363 36.5125 46.8051 36.21 47.2626 35.7625C48.1451 34.9125 48.7838 33.8063 49.0701 32.6138C49.2338 31.9625 49.1901 31.2875 49.1926 30.6238C49.1751 24.485 49.1576 18.3475 49.1401 12.21C40.4026 17.2525 31.6688 22.3013 22.9288 27.34ZM19.9426 26.0338C19.9626 32.4825 19.9826 38.93 20.0038 45.3788C20.0051 45.9563 20.1326 46.6275 20.6501 46.9688C21.2138 47.325 21.8051 47.6338 22.3738 47.9825C22.3251 47.66 22.2788 47.3363 22.2788 47.01C22.2576 40.455 22.2401 33.9 22.2138 27.345C21.4576 26.9063 20.7013 26.4675 19.9426 26.0338ZM6.81383 39.1988C6.20133 39.55 5.59883 40.2238 5.81633 40.9825C6.05758 41.795 6.88508 42.1725 7.55883 42.565C14.7476 46.715 21.9351 50.8663 29.1226 55.0163C29.8863 55.45 30.7651 55.6425 31.6351 55.6988C32.8526 55.7613 34.1188 55.5663 35.1813 54.9413C42.4788 50.6988 49.7776 46.4588 57.0763 42.215C57.7201 41.8588 58.3963 41.1938 58.2051 40.3863C57.9513 39.4675 56.9813 39.0988 56.2438 38.6463C53.8551 37.2625 51.4626 35.8863 49.0713 34.5075C48.4838 35.5638 47.6688 36.5263 46.6001 37.1163C39.6538 41.1225 32.7126 45.1338 25.7663 49.14C25.0563 49.5488 24.1363 49.7775 23.3751 49.365C22.3663 48.8 21.3726 48.2075 20.3713 47.6263C19.6076 47.2038 19.3001 46.285 19.3013 45.4563C19.2826 40.9588 19.2738 36.4625 19.2563 31.9663C15.1088 34.3775 10.9588 36.7838 6.81383 39.1988ZM5.75883 42.21C5.76883 43.0588 5.74633 43.9088 5.76258 44.7575C5.79133 45.4613 6.38383 45.965 6.94883 46.2938C14.1638 50.4538 21.3763 54.62 28.5901 58.7813C30.5888 60.0975 33.3676 60.145 35.4001 58.8775C42.6388 54.665 49.8838 50.4638 57.1213 46.25C57.6588 45.9275 58.2051 45.43 58.2338 44.76C58.2513 43.9138 58.2313 43.0663 58.2413 42.22C57.6313 42.7725 56.8838 43.13 56.1838 43.5513C49.3538 47.5125 42.5326 51.49 35.7026 55.4513C34.0601 56.475 31.9863 56.6325 30.1363 56.17C29.1976 55.9538 28.3938 55.4038 27.5688 54.9338C20.9713 51.12 14.3663 47.32 7.77133 43.5025C7.08508 43.095 6.35883 42.7438 5.75883 42.21Z" fill="#403D39"></path><path d="M44.444 23.575C44.654 23.44 44.9665 23.6163 44.9565 23.8663C44.9815 24.1 44.7365 24.2 44.5777 24.305C43.1952 25.09 41.8165 25.8813 40.4327 26.6613C40.244 26.8088 39.9177 26.7488 39.8602 26.4975C39.764 26.2838 39.9677 26.105 40.139 26.02C41.579 25.2138 43.0027 24.3763 44.444 23.575Z" fill="#403D39"></path><path d="M34.5788 24.5875C34.795 24.4213 35.14 24.5925 35.1325 24.8675C35.1513 25.08 34.9375 25.1813 34.7888 25.2788C31.8538 26.9725 28.9163 28.6663 25.9813 30.3625C25.8338 30.425 25.6813 30.5675 25.51 30.5038C25.2775 30.4538 25.1713 30.1375 25.3275 29.9575C25.4888 29.8125 25.6875 29.7188 25.8725 29.6088C28.7788 27.9438 31.6725 26.2538 34.5788 24.5875Z" fill="#403D39"></path><path d="M37.6701 27.43C37.8726 27.2475 38.2601 27.3225 38.2864 27.6225C38.3514 27.8488 38.1151 27.9838 37.9551 28.08C35.8064 29.3038 33.6564 30.5288 31.5076 31.7538C31.3589 31.8238 31.1876 31.9563 31.0189 31.8588C30.7626 31.7625 30.7401 31.3588 30.9939 31.2438C33.2139 29.9638 35.4451 28.7025 37.6701 27.43Z" fill="#403D39"></path><path d="M44.3064 28.1875C44.5214 27.995 44.9301 28.0513 44.9564 28.3838C44.9901 28.6538 44.7076 28.7588 44.5239 28.8775C42.7926 29.8563 41.0701 30.8538 39.3351 31.825C39.1089 32.005 38.7476 31.8 38.7801 31.5175C38.7826 31.3175 38.9801 31.23 39.1239 31.14C40.8551 30.1625 42.5789 29.1713 44.3064 28.1875Z" fill="#403D39"></path><path d="M36.905 32.4138C37.13 32.2413 37.4875 32.4638 37.4375 32.7388C37.44 32.9313 37.24 33.01 37.1075 33.1025C33.3725 35.2325 29.6375 37.365 25.9 39.4913C25.76 39.565 25.5813 39.66 25.4301 39.5563C25.1926 39.4325 25.1988 39.0525 25.4476 38.945C29.2638 36.7638 33.0825 34.5838 36.905 32.4138Z" fill="#403D39"></path><path d="M28.5377 32.6475C28.8964 32.4412 29.2314 33.0412 28.8714 33.2425C27.8402 33.8562 26.7952 34.4512 25.7414 35.0237C25.3727 35.2362 25.0464 34.6075 25.4227 34.4212C26.4564 33.8237 27.4889 33.2175 28.5377 32.6475Z" fill="#403D39"></path><path d="M34.5701 38.2175C34.7851 38.045 35.1363 38.2087 35.1326 38.4862C35.1538 38.7037 34.9326 38.8087 34.7813 38.9075C31.7963 40.6237 28.8188 42.3575 25.8288 44.0662C25.6013 44.2675 25.1938 44.0462 25.2626 43.7475C25.2551 43.58 25.4276 43.5037 25.5426 43.425C28.5538 41.6925 31.5588 39.9487 34.5701 38.2175Z" fill="#403D39"></path><path d="M43.1476 4.89999C43.7739 4.53499 44.4789 4.05374 45.2389 4.27999C45.9001 4.57874 46.5026 4.99249 47.1401 5.33999C46.4776 5.56624 45.8901 5.94999 45.2876 6.29499C38.6814 10.1087 32.0751 13.9237 25.4664 17.7325C24.1464 18.4825 23.2189 19.7812 22.6501 21.165C22.3851 21.8287 22.2101 22.535 22.2076 23.2525C22.2064 24.3475 22.2176 25.4412 22.2201 26.535C21.4601 26.095 20.6989 25.655 19.9376 25.215C19.9376 24.0587 19.9326 22.9037 19.9289 21.7475C19.8901 20.39 20.4601 19.0812 21.2626 18.0112C21.6589 17.495 22.1351 17.0337 22.6964 16.7025C29.5151 12.77 36.3301 8.83249 43.1476 4.89999Z" fill="#A9D284"></path><path d="M19.9426 26.0337C20.7014 26.4675 21.4576 26.9062 22.2139 27.345C22.2401 33.9 22.2576 40.455 22.2789 47.01C22.2789 47.3362 22.3251 47.66 22.3739 47.9825C21.8051 47.6337 21.2139 47.325 20.6501 46.9687C20.1326 46.6275 20.0051 45.9562 20.0039 45.3787C19.9826 38.93 19.9626 32.4825 19.9426 26.0337Z" fill="#A9D284"></path><path d="M46.2025 6.58376C46.805 6.23251 47.49 5.80126 48.2175 6.00751C48.84 6.19376 49.0938 6.89626 49.1163 7.48876C49.1438 8.79001 49.1263 10.0925 49.1375 11.395C40.4025 16.4438 31.665 21.4863 22.9263 26.5288C22.9213 25.52 22.92 24.5113 22.915 23.5025C22.8713 22.0813 23.4838 20.71 24.3513 19.6113C24.7425 19.1238 25.215 18.7013 25.7563 18.3888C32.5725 14.4563 39.3888 10.5213 46.2025 6.58376Z" fill="white"></path><path d="M22.9287 27.34C31.6687 22.3013 40.4025 17.2525 49.14 12.21C49.1575 18.3475 49.175 24.485 49.1925 30.6238C49.19 31.2875 49.2337 31.9625 49.07 32.6138C48.7837 33.8063 48.145 34.9125 47.2625 35.7625C46.805 36.21 46.2362 36.5125 45.6875 36.8288C38.9287 40.7275 32.175 44.6325 25.415 48.5288C24.8975 48.8238 24.2162 49.045 23.6625 48.7213C23.14 48.3788 22.995 47.7 22.9862 47.1163C22.9662 40.5238 22.9462 33.9325 22.9287 27.34ZM44.4437 23.575C43.0025 24.3763 41.5787 25.2138 40.1387 26.02C39.9675 26.105 39.7637 26.2838 39.86 26.4975C39.9175 26.7488 40.2437 26.8088 40.4325 26.6613C41.8162 25.8813 43.195 25.09 44.5775 24.305C44.7362 24.2 44.9812 24.1 44.9562 23.8663C44.9662 23.6163 44.6537 23.44 44.4437 23.575ZM34.5787 24.5875C31.6725 26.2538 28.7787 27.9438 25.8725 29.6088C25.6875 29.7188 25.4887 29.8125 25.3275 29.9575C25.1712 30.1375 25.2775 30.4538 25.51 30.5038C25.6812 30.5675 25.8337 30.425 25.9812 30.3625C28.9162 28.6663 31.8537 26.9725 34.7887 25.2788C34.9375 25.1813 35.1512 25.08 35.1325 24.8675C35.14 24.5925 34.795 24.4213 34.5787 24.5875ZM37.67 27.43C35.445 28.7025 33.2137 29.9638 30.9937 31.2438C30.74 31.3588 30.7625 31.7625 31.0187 31.8588C31.1875 31.9563 31.3587 31.8238 31.5075 31.7538C33.6562 30.5288 35.8062 29.3038 37.955 28.08C38.115 27.9838 38.3512 27.8488 38.2862 27.6225C38.26 27.3225 37.8725 27.2475 37.67 27.43ZM44.3062 28.1875C42.5787 29.1713 40.855 30.1625 39.1237 31.14C38.98 31.23 38.7825 31.3175 38.78 31.5175C38.7475 31.8 39.1087 32.005 39.335 31.825C41.07 30.8538 42.7925 29.8563 44.5237 28.8775C44.7075 28.7588 44.99 28.6538 44.9562 28.3838C44.93 28.0513 44.5212 27.995 44.3062 28.1875ZM36.905 32.4138C33.0825 34.5838 29.2637 36.7638 25.4475 38.945C25.1987 39.0525 25.1925 39.4325 25.43 39.5563C25.5812 39.66 25.76 39.565 25.9 39.4913C29.6375 37.365 33.3725 35.2325 37.1075 33.1025C37.24 33.01 37.44 32.9313 37.4375 32.7388C37.4875 32.4638 37.13 32.2413 36.905 32.4138ZM28.5375 32.6475C27.4887 33.2175 26.4562 33.8238 25.4225 34.4213C25.0462 34.6075 25.3725 35.2363 25.7412 35.0238C26.795 34.4513 27.84 33.8563 28.8712 33.2425C29.2312 33.0413 28.8962 32.4413 28.5375 32.6475ZM34.57 38.2175C31.5587 39.9488 28.5537 41.6925 25.5425 43.425C25.4275 43.5038 25.255 43.58 25.2625 43.7475C25.1937 44.0463 25.6012 44.2675 25.8287 44.0663C28.8187 42.3575 31.7962 40.6238 34.7812 38.9075C34.9325 38.8088 35.1537 38.7038 35.1325 38.4863C35.1362 38.2088 34.785 38.045 34.57 38.2175Z" fill="white"></path><path d="M6.81362 39.1987C10.9586 36.7837 15.1086 34.3775 19.2561 31.9662C19.2736 36.4625 19.2824 40.9587 19.3011 45.4562C19.2999 46.285 19.6074 47.2038 20.3711 47.6263C21.3724 48.2075 22.3661 48.8 23.3749 49.365C24.1361 49.7775 25.0561 49.5487 25.7661 49.14C32.7124 45.1337 39.6536 41.1225 46.5999 37.1162C47.6686 36.5262 48.4836 35.5637 49.0711 34.5075C51.4624 35.8862 53.8549 37.2625 56.2436 38.6463C56.9811 39.0988 57.9511 39.4675 58.2049 40.3862C58.3961 41.1937 57.7199 41.8587 57.0761 42.215C49.7774 46.4587 42.4786 50.6987 35.1811 54.9412C34.1186 55.5662 32.8524 55.7612 31.6349 55.6987C30.7649 55.6425 29.8861 55.45 29.1224 55.0163C21.9349 50.8663 14.7474 46.715 7.55862 42.565C6.88487 42.1725 6.05737 41.795 5.81612 40.9825C5.59862 40.2237 6.20112 39.55 6.81362 39.1987Z" fill="white"></path><path d="M5.7587 42.21C6.3587 42.7438 7.08495 43.095 7.7712 43.5025C14.3662 47.32 20.9712 51.12 27.5687 54.9338C28.3937 55.4038 29.1974 55.9538 30.1362 56.17C31.9862 56.6325 34.0599 56.475 35.7024 55.4513C42.5324 51.49 49.3537 47.5125 56.1837 43.5513C56.8837 43.13 57.6312 42.7725 58.2412 42.22C58.2312 43.0663 58.2512 43.9138 58.2337 44.76C58.2049 45.43 57.6587 45.9275 57.1212 46.25C49.8837 50.4638 42.6387 54.665 35.4 58.8775C33.3675 60.145 30.5887 60.0975 28.5899 58.7813C21.3762 54.62 14.1637 50.4538 6.9487 46.2938C6.3837 45.965 5.7912 45.4613 5.76245 44.7575C5.7462 43.9088 5.7687 43.0588 5.7587 42.21Z" fill="white"></path></svg>